<?xml version="1.0" encoding="UTF-8"?>
<svg xmlns="http://www.w3.org/2000/svg" xmlns:xlink="http://www.w3.org/1999/xlink" width="220px" height="175px" viewBox="0 0 220 175" version="1.1">
  <title>Group 68</title>
  <defs>
    <polygon id="path-1" points="2.55351296e-15 1.42108547e-14 218.309911 1.42108547e-14 218.309911 50.7091629 2.55351296e-15 50.7091629"></polygon>
    <polygon id="path-3" points="0 0 39.2215153 0 39.2215153 55.7090711 0 55.7090711"></polygon>
    <polygon id="path-5" points="0 0 30.9261212 0 30.9261212 40.0539507 0 40.0539507"></polygon>
  </defs>
  <g id="Page-1" stroke="none" stroke-width="1" fill="none" fill-rule="evenodd">
    <g id="Group-68">
      <g id="Group-3" transform="translate(0.763089, 123.804837)">
        <mask id="mask-2" fill="white">
          <use xlink:href="#path-1"></use>
        </mask>
        <g id="Clip-2"></g>
        <path d="M76.8700111,12.2147629 C76.7450111,13.6607629 76.6040111,14.9947629 76.5200111,16.3327629 C76.3860111,18.4687629 75.9030111,20.5387629 75.3850111,22.6027629 C75.1560111,23.5187629 74.8840111,24.4237629 74.6290111,25.3337629 C74.5160111,25.7377629 74.6230111,25.9887629 75.0740111,26.0517629 C75.5750111,26.1217629 76.0740111,26.2067629 76.5700111,26.3017629 C77.0120111,26.3867629 77.3060111,26.2617629 77.3790111,25.7857629 C77.4410111,25.3857629 77.5060111,24.9857629 77.5490111,24.5827629 C77.6660111,23.4737629 77.7710111,22.3627629 77.8830111,21.2527629 C77.9070111,21.0177629 77.9360111,20.7827629 77.9720111,20.5487629 C78.1650111,19.2817629 78.3170111,18.0057629 78.5680111,16.7497629 C78.7940111,15.6247629 79.1330111,14.5227629 79.4150111,13.4097629 C79.5860111,12.7357629 79.4100111,12.4227629 78.7460111,12.3367629 C78.1470111,12.2577629 77.5390111,12.2547629 76.8700111,12.2147629 M62.0080111,22.8217629 C61.9750111,21.8377629 61.9120111,20.6197629 61.8990111,19.4017629 C61.8780111,17.5707629 61.8630111,15.7387629 61.9070111,13.9077629 C61.9260111,13.1017629 62.0910111,12.2997629 62.1970111,11.4957629 C62.2190111,11.3287629 62.2930111,11.1677629 62.3040111,11.0017629 C62.3440111,10.4347629 62.1400111,10.1837629 61.5640111,10.1477629 C61.0570111,10.1157629 60.5460111,10.1207629 60.0390111,10.1437629 C59.3560111,10.1747629 59.2470111,10.3487629 59.3400111,11.0467629 C59.4660111,11.9837629 59.6050111,12.9207629 59.6720111,13.8627629 C59.9040111,17.1467629 59.8390111,20.4177629 59.1350111,23.6527629 C59.0270111,24.1477629 59.1680111,24.3557629 59.6840111,24.3897629 C60.2240111,24.4247629 60.7690111,24.4157629 61.3110111,24.3977629 C62.0680111,24.3717629 62.1640111,24.2457629 62.1000111,23.4577629 C62.0890111,23.3227629 62.0620111,23.1897629 62.0080111,22.8217629 M119.537011,34.4217629 C119.010011,34.5257629 118.760011,34.5757629 118.509011,34.6247629 C117.687011,34.7857629 116.904011,34.9577629 116.018011,34.8057629 C113.290011,34.3347629 111.981011,31.9287629 111.947011,30.1367629 C111.904011,27.9027629 112.840011,25.9947629 114.236011,24.3207629 C114.554011,23.9397629 115.121011,23.7067629 115.619011,23.5447629 C117.483011,22.9427629 119.822011,23.8197629 120.691011,25.6837629 C120.815011,25.9517629 121.104011,26.1427629 121.394011,26.4527629 C121.659011,25.9877629 121.858011,25.6817629 122.015011,25.3547629 C122.413011,24.5277629 122.374011,24.2207629 121.578011,23.7597629 C120.826011,23.3237629 120.009011,22.9887629 119.193011,22.6807629 C118.183011,22.2987629 117.154011,21.9527629 116.055011,21.9307629 C115.144011,21.9127629 114.247011,21.8847629 113.387011,22.3387629 C111.674011,23.2407629 110.591011,24.6067629 109.993011,26.4397629 C109.527011,27.8667629 109.363011,29.2447629 109.895011,30.6937629 C111.125011,34.0417629 113.500011,36.0057629 116.978011,36.6517629 C117.470011,36.7437629 117.996011,36.7037629 118.499011,36.6567629 C118.699011,36.6377629 118.992011,36.4717629 119.052011,36.3047629 C119.241011,35.7777629 119.341011,35.2177629 119.537011,34.4217629 M15.6340111,22.0067629 C15.8350111,22.1967629 15.9000111,22.2337629 15.9310111,22.2897629 C16.1080111,22.6157629 16.2840111,22.9417629 16.4500111,23.2737629 C17.9430111,26.2607629 19.4620111,29.2377629 20.4860111,32.4307629 C20.6300111,32.8787629 20.8780111,32.9517629 21.2480111,32.7617629 C21.6390111,32.5607629 22.0070111,32.3187629 22.3970111,32.1157629 C23.2270111,31.6837629 23.2780111,31.5527629 22.8750111,30.7187629 C22.8010111,30.5677629 22.7080111,30.4257629 22.6260111,30.2777629 C21.0740111,27.4677629 19.5190111,24.6587629 17.9730111,21.8457629 C17.6300111,21.2207629 17.6860111,20.9297629 18.2430111,20.7077629 C19.1460111,20.3477629 20.0650111,20.0207629 20.9910111,19.7257629 C21.6370111,19.5197629 21.8610111,19.3217629 21.7640111,18.8717629 C21.5530111,17.8947629 20.8630111,17.1107629 20.3080111,17.2227629 C20.2090111,17.2427629 20.1110111,17.2787629 20.0190111,17.3207629 C19.8660111,17.3917629 19.7180111,17.4737629 19.5680111,17.5517629 C17.2290111,18.7627629 14.9030111,20.0007629 12.5470111,21.1777629 C10.9730111,21.9637629 10.9540111,21.9247629 11.6540111,23.5317629 C11.9700111,24.2557629 12.2210111,24.3137629 12.8630111,23.8707629 C13.7750111,23.2397629 14.7030111,22.6317629 15.6340111,22.0067629 M73.8900111,22.6947629 C73.4520111,22.8677629 73.1680111,22.9397629 72.9250111,23.0817629 C71.9500111,23.6487629 70.8950111,23.9217629 69.8070111,23.6427629 C66.8820111,22.8927629 65.5080111,20.5197629 65.7850111,17.8797629 C65.9030111,16.7567629 66.2880111,15.6297629 66.7370111,14.5837629 C67.2290111,13.4367629 68.0910111,12.5747629 69.3910111,12.2667629 C71.1380111,11.8527629 72.5030111,12.5017629 73.6630111,13.7507629 C74.6110111,14.7727629 74.7910111,14.7437629 75.3260111,13.4527629 C75.6090111,12.7697629 75.5270111,12.5037629 74.8960111,12.1277629 C74.6950111,12.0087629 74.4820111,11.9017629 74.2630111,11.8187629 C72.6680111,11.2157629 71.0030111,10.9437629 69.3090111,10.8777629 C67.8390111,10.8197629 66.5390111,11.2087629 65.4170111,12.2707629 C64.2430111,13.3827629 63.6340111,14.7657629 63.3780111,16.2667629 C63.1840111,17.4087629 63.1380111,18.6037629 63.5430111,19.7767629 C64.0890111,21.3537629 65.1500111,22.5097629 66.3780111,23.5377629 C68.2550111,25.1067629 70.5020111,25.4497629 72.8560111,25.3637629 C73.2580111,25.3487629 73.6350111,25.1777629 73.7070111,24.7667629 C73.8160111,24.1497629 73.8240111,23.5137629 73.8900111,22.6947629 M145.202011,37.7977629 C145.121011,37.3637629 145.025011,37.0877629 145.026011,36.8117629 C145.038011,34.3367629 145.048011,31.8627629 145.106011,29.3897629 C145.118011,28.8717629 144.931011,28.6377629 144.478011,28.5187629 C143.752011,28.3287629 143.028011,28.3197629 142.237011,28.4637629 C142.237011,28.8087629 142.199011,29.1117629 142.244011,29.4027629 C142.462011,30.8037629 142.741011,32.1957629 142.924011,33.6007629 C143.116011,35.0747629 143.298011,36.5587629 143.346011,38.0427629 C143.386011,39.3187629 143.559011,40.6167629 143.147011,41.8807629 C143.021011,42.2657629 143.064011,42.6037629 143.564011,42.7457629 C145.091011,43.1797629 145.364011,43.1667629 145.598011,42.5397629 C145.704011,42.2547629 145.776011,41.9567629 145.852011,41.6617629 C145.893011,41.4987629 145.877011,41.3137629 145.943011,41.1637629 C147.031011,38.6967629 148.086011,36.2147629 149.239011,33.7787629 C149.786011,32.6237629 150.522011,31.5587629 151.173011,30.4527629 C151.525011,29.8547629 151.420011,29.6427629 150.709011,29.5207629 C150.276011,29.4467629 149.841011,29.3807629 149.408011,29.3027629 C148.707011,29.1777629 148.490011,29.2847629 148.273011,29.9667629 C148.151011,30.3507629 148.144011,30.7727629 148.009011,31.1507629 C147.498011,32.5787629 147.000011,34.0137629 146.408011,35.4087629 C146.089011,36.1597629 145.971011,37.0297629 145.202011,37.7977629 M38.6740111,13.4287629 C38.6740111,14.7237629 38.7230111,15.9377629 38.6610111,17.1467629 C38.5980111,18.3597629 38.4330111,19.5677629 38.3000111,20.7767629 C38.2150111,21.5477629 38.0910111,22.3157629 38.0090111,23.0867629 C37.9050111,24.0477629 37.8260111,25.0117629 37.7340111,25.9947629 C37.9790111,26.0507629 38.1190111,26.1307629 38.2280111,26.1007629 C38.6480111,25.9827629 39.0500111,25.7947629 39.4740111,25.6957629 C40.4640111,25.4627629 40.4870111,25.4767629 40.4750111,24.4487629 C40.4630111,23.4347629 40.4210111,22.4197629 40.3630111,21.4067629 C40.3300111,20.8297629 40.6080111,20.5167629 41.1230111,20.3687629 C41.4150111,20.2847629 41.7130111,20.2107629 42.0130111,20.1667629 C42.4630111,20.1017629 42.7910111,20.2477629 42.9690111,20.7147629 C43.3990111,21.8457629 43.8760111,22.9587629 44.2980111,24.0917629 C44.5610111,24.7987629 44.8020111,24.9327629 45.5120111,24.6597629 C45.7930111,24.5527629 46.0830111,24.4647629 46.3730111,24.3827629 C47.1540111,24.1627629 47.3010111,23.7997629 46.8070111,23.1437629 C45.0910111,20.8637629 43.7970111,18.3377629 42.5100111,15.8087629 C42.1590111,15.1187629 41.8330111,14.4107629 41.5670111,13.6837629 C41.2740111,12.8807629 41.4780111,12.5987629 42.2700111,12.5227629 C42.7060111,12.4807629 43.1440111,12.4427629 43.5740111,12.3617629 C44.4260111,12.2017629 44.6290111,11.8767629 44.4720111,11.0507629 C44.3980111,10.6627629 44.1720111,10.5337629 43.8190111,10.6157629 C42.9360111,10.8217629 42.0620111,11.0717629 41.1730111,11.2527629 C40.0830111,11.4757629 38.9810111,11.6417629 37.8860111,11.8417629 C37.0310111,11.9987629 36.1780111,12.1717629 35.1890111,12.3627629 C35.2620111,13.0677629 35.3250111,13.6787629 35.3900111,14.3117629 C36.6390111,14.4027629 37.4090111,13.2707629 38.6740111,13.4287629 M24.2100111,15.3567629 C24.7400111,16.3167629 25.2680111,17.0687629 25.5900111,17.9007629 C26.1240111,19.2767629 26.6040111,20.6837629 26.9610111,22.1147629 C27.3860111,23.8137629 27.7370111,25.5417629 27.9710111,27.2767629 C28.1800111,28.8287629 28.0910111,28.8407629 29.6030111,28.6467629 C30.7140111,28.5047629 30.8920111,28.2627629 30.5830111,27.1937629 C30.1150111,25.5737629 29.6260111,23.9607629 29.1320111,22.3487629 C29.0380111,22.0437629 28.9100111,21.7497629 29.2450111,21.5347629 C29.5840111,21.3167629 29.8920111,21.4447629 30.1700111,21.6857629 C30.2730111,21.7747629 30.3850111,21.8527629 30.4820111,21.9467629 C31.9910111,23.4127629 33.5000111,24.8807629 34.4540111,26.7967629 C34.6510111,27.1907629 34.9180111,27.2807629 35.2750111,27.1147629 C35.7030111,26.9157629 36.1200111,26.6887629 36.5230111,26.4407629 C37.1250111,26.0707629 37.1290111,25.7737629 36.5650111,25.2797629 C34.9350111,23.8517629 33.3020111,22.4277629 31.6790111,20.9927629 C31.5130111,20.8467629 31.4060111,20.6347629 31.2530111,20.4277629 C31.8810111,19.9217629 32.4810111,19.4827629 33.0250111,18.9827629 C33.3400111,18.6927629 33.6740111,18.3427629 33.8090111,17.9537629 C34.4770111,16.0317629 33.0540111,14.0597629 31.0300111,13.9557629 C29.5910111,13.8827629 28.1940111,14.0747629 26.8220111,14.4527629 C25.9550111,14.6917629 25.1170111,15.0387629 24.2100111,15.3567629 M96.2430111,21.3027629 C96.3210111,21.2927629 96.3990111,21.2827629 96.4780111,21.2727629 C96.7350111,21.8747629 97.0320111,22.4617629 97.2410111,23.0797629 C97.7840111,24.6747629 98.3330111,26.2697629 98.7890111,27.8907629 C99.0350111,28.7617629 99.2730111,29.7027629 99.1930111,30.5817629 C99.0840111,31.7647629 99.5130111,31.8277629 100.409011,32.0177629 C100.661011,32.0707629 100.924011,32.0737629 101.269011,32.1097629 C101.576011,30.6577629 101.856011,29.2737629 102.162011,27.8947629 C102.513011,26.3157629 102.829011,24.7247629 103.269011,23.1697629 C103.635011,21.8747629 104.157011,20.6237629 104.614011,19.3547629 C104.758011,18.9547629 104.747011,18.5687629 104.286011,18.4427629 C103.560011,18.2457629 102.813011,18.1287629 102.033011,17.9687629 C101.794011,21.1037629 101.216011,24.0187629 100.309011,26.9087629 C100.002011,26.5427629 99.7740111,26.1767629 99.6500111,25.7777629 C99.1700111,24.2377629 98.6940111,22.6947629 98.2750111,21.1367629 C98.0050111,20.1307629 97.7640111,19.1067629 97.6440111,18.0757629 C97.4980111,16.8177629 97.5580111,16.8147629 96.3610111,16.4677629 C96.1690111,16.4117629 96.0030111,16.2647629 95.8100111,16.2177629 C95.6330111,16.1747629 95.4360111,16.2087629 95.1940111,16.2087629 C95.1510111,16.6817629 95.1370111,17.1157629 95.0680111,17.5417629 C94.7670111,19.4047629 94.4230111,21.2527629 93.9340111,23.0837629 C93.4290111,24.9767629 92.8540111,26.8357629 92.1150111,28.6447629 C91.6880111,29.6907629 91.6560111,29.6757629 92.7470111,29.9997629 C93.2810111,30.1577629 93.7810111,30.5187629 94.4560111,30.2807629 C95.0510111,27.2887629 95.6470111,24.2957629 96.2430111,21.3027629 M92.8610111,20.9397629 C93.0620111,19.9667629 92.8140111,18.8497629 92.3280111,17.9237629 C91.2460111,15.8607629 89.7100111,14.2277629 87.2200111,13.8477629 C85.8250111,13.6357629 84.4130111,13.6017629 83.1190111,14.1437629 C80.3680111,15.2957629 79.0970111,17.4887629 78.9990111,20.4337629 C78.9690111,21.3327629 79.1720111,22.1717629 79.3680111,23.0317629 C79.6320111,24.1867629 80.1470111,25.1847629 80.9880111,26.0127629 C82.5320111,27.5327629 84.3670111,28.2337629 86.5560111,28.2617629 C88.3680111,28.2847629 89.7540111,27.5657629 90.9650111,26.3517629 C92.4150111,24.8977629 92.9410111,23.0957629 92.8610111,20.9397629 M47.6870111,10.3267629 C47.9570111,11.0577629 48.2790111,11.6977629 48.4210111,12.3747629 C48.5930111,13.1967629 48.6040111,14.0507629 48.6990111,14.8897629 C48.9850111,17.4017629 48.5610111,19.8867629 48.4050111,22.3817629 C48.3880111,22.6437629 48.2320111,22.8937629 48.1820111,23.1567629 C48.1150111,23.5067629 48.0880111,23.8627629 48.0510111,24.1607629 C48.2160111,24.2677629 48.2700111,24.3307629 48.3290111,24.3357629 C50.5510111,24.5227629 52.7650111,24.6967629 54.9490111,23.9787629 C56.6840111,23.4087629 58.4500111,21.4147629 58.4720111,19.6557629 C58.4930111,17.9787629 58.6600111,16.2967629 58.1520111,14.6187629 C57.6990111,13.1237629 56.9630111,11.9067629 55.7000111,11.0227629 C54.9800111,10.5197629 54.2050111,10.1337629 53.2860111,10.0667629 C52.4810111,10.0077629 51.6810111,9.72376292 50.8840111,9.74476292 C49.9110111,9.76976292 48.9430111,10.0057629 47.9750111,10.1597629 C47.8860111,10.1737629 47.8070111,10.2547629 47.6870111,10.3267629 M133.323011,27.4797629 C133.412011,27.7257629 133.561011,27.9347629 133.546011,28.1307629 C133.436011,29.5407629 133.347011,30.9557629 133.140011,32.3527629 C133.009011,33.2397629 132.623011,34.0867629 132.466011,34.9717629 C132.207011,36.4287629 131.838011,37.8397629 131.209011,39.1857629 C131.038011,39.5507629 131.040011,39.9967629 130.951011,40.4717629 C132.045011,40.5107629 132.878011,41.3657629 133.853011,40.8517629 C134.211011,38.6227629 134.562011,36.4467629 134.908011,34.2977629 C135.337011,34.1627629 135.641011,34.1717629 135.776011,34.5297629 C136.225011,35.7207629 136.707011,36.9037629 137.065011,38.1217629 C137.396011,39.2477629 137.612011,40.4117629 137.570011,41.6027629 C137.567011,41.6827629 137.670011,41.7667629 137.751011,41.8917629 C138.602011,41.8507629 139.462011,41.8087629 140.424011,41.7627629 C140.389011,40.2397629 139.423011,39.1767629 139.046011,37.9107629 C138.661011,36.6157629 138.024011,35.3957629 137.443011,34.0147629 C138.034011,33.9137629 138.466011,33.8747629 138.879011,33.7617629 C139.521011,33.5847629 140.187011,33.4307629 140.769011,33.1267629 C141.127011,32.9407629 141.531011,32.5237629 141.594011,32.1547629 C141.729011,31.3677629 141.667011,30.5447629 141.660011,29.7357629 C141.659011,29.5797629 141.582011,29.3957629 141.480011,29.2747629 C140.909011,28.5987629 140.324011,27.8777629 139.472011,27.6027629 C138.206011,27.1937629 136.987011,26.5457629 135.590011,26.6377629 C135.427011,26.6487629 135.241011,26.6157629 135.095011,26.5437629 C134.284011,26.1407629 133.491011,26.0387629 132.808011,26.6407629 C132.151011,26.3237629 131.598011,25.9717629 130.993011,25.7837629 C129.607011,25.3527629 128.198011,24.9977629 126.795011,24.6247629 C126.603011,24.5737629 126.386011,24.5607629 126.190011,24.5907629 C122.915011,25.0867629 121.244011,27.1967629 120.616011,29.9967629 C120.078011,32.3927629 120.753011,34.5327629 122.376011,36.4077629 C124.102011,38.4027629 126.271011,39.3747629 128.868011,39.4517629 C129.216011,39.4617629 129.746011,39.4057629 129.885011,39.1867629 C130.268011,38.5817629 130.476011,37.8717629 130.381011,37.0327629 C129.010011,37.3087629 127.816011,38.0707629 126.443011,37.5567629 C125.130011,37.0657629 124.039011,36.3707629 123.381011,35.0627629 C122.746011,33.8007629 122.978011,32.5307629 123.048011,31.1737629 C123.416011,31.2147629 123.661011,31.1947629 123.870011,31.2717629 C125.512011,31.8827629 127.145011,32.5177629 128.786011,33.1307629 C128.997011,33.2097629 129.334011,33.3277629 129.447011,33.2327629 C130.153011,32.6327629 130.901011,32.0487629 131.208011,31.1147629 C131.220011,31.0777629 131.137011,31.0097629 131.078011,30.9287629 C130.087011,30.9287629 129.074011,30.8877629 128.065011,30.9387629 C126.595011,31.0127629 125.268011,30.5097629 123.929011,30.0307629 C123.486011,29.8717629 123.358011,29.5837629 123.631011,29.1617629 C124.034011,28.5387629 124.365011,27.8527629 124.849011,27.3007629 C125.386011,26.6897629 126.100011,26.2397629 126.929011,26.1067629 C128.737011,25.8167629 130.564011,26.7497629 131.456011,28.3717629 C131.582011,28.6007629 131.697011,28.8367629 131.814011,29.0637629 C132.880011,29.0537629 132.514011,27.7887629 133.323011,27.4797629 M162.081011,31.9007629 C161.703011,31.5277629 161.451011,31.1167629 161.087011,30.9517629 C159.849011,30.3917629 158.528011,30.1077629 157.166011,30.0667629 C156.386011,30.0427629 155.604011,30.0447629 154.824011,30.0657629 C153.846011,30.0917629 153.002011,30.4507629 152.245011,31.0847629 C150.782011,32.3107629 150.067011,33.9237629 149.874011,35.7577629 C149.776011,36.6867629 149.758011,37.6907629 150.007011,38.5767629 C150.660011,40.8997629 152.361011,42.3827629 154.407011,43.5157629 C156.119011,44.4627629 157.984011,44.4107629 159.845011,44.3227629 C160.082011,44.3117629 160.412011,44.0587629 160.516011,43.8337629 C160.848011,43.1147629 160.826011,42.3547629 160.570011,41.4777629 C159.438011,42.0677629 158.456011,42.8317629 157.178011,42.7877629 C155.861011,42.7417629 154.708011,42.2697629 153.825011,41.3257629 C152.693011,40.1147629 152.287011,38.6327629 152.454011,36.8797629 C153.433011,37.0727629 154.283011,37.2427629 155.135011,37.4057629 C156.227011,37.6147629 157.319011,37.8277629 158.413011,38.0217629 C158.922011,38.1117629 159.339011,38.0057629 159.579011,37.4607629 C159.678011,37.2367629 159.918011,37.0747629 160.254011,36.7117629 C160.352011,37.1677629 160.462011,37.4377629 160.457011,37.7057629 C160.440011,38.8387629 160.868011,39.7947629 161.491011,40.7117629 C162.117011,41.6337629 162.925011,42.3667629 163.867011,42.8967629 C164.860011,43.4557629 165.914011,44.0227629 167.012011,44.2507629 C168.116011,44.4797629 169.307011,44.3207629 170.458011,44.2757629 C170.817011,44.2607629 171.187011,44.0977629 171.516011,43.9307629 C171.697011,43.8387629 171.909011,43.6047629 171.924011,43.4207629 C171.975011,42.7927629 171.943011,42.1587629 171.943011,41.5907629 C171.302011,41.2937629 171.058011,41.7137629 170.760011,41.9527629 C169.477011,42.9827629 167.982011,43.1127629 166.532011,42.6357629 C163.620011,41.6777629 162.724011,38.6307629 163.021011,36.1407629 C163.077011,35.6717629 163.163011,35.2037629 163.279011,34.7457629 C163.533011,33.7427629 163.924011,32.7947629 164.827011,32.2017629 C166.272011,31.2527629 168.409011,31.0947629 169.859011,32.2847629 C170.195011,32.5607629 170.434011,33.0187629 170.808011,33.1717629 C171.539011,33.4727629 171.462011,33.9697629 171.424011,34.5787629 C171.345011,35.8277629 171.218011,37.1087629 171.667011,38.3067629 C172.643011,40.9137629 174.743011,42.2687629 177.269011,43.0417629 C178.900011,43.5407629 180.573011,43.2537629 182.213011,42.9977629 C182.590011,42.9387629 183.170011,42.5697629 183.209011,42.2837629 C183.304011,41.5837629 183.306011,40.8257629 182.962011,39.9737629 C182.600011,40.2507629 182.313011,40.4537629 182.046011,40.6797629 C180.874011,41.6697629 179.521011,42.2507629 178.014011,41.8787629 C175.830011,41.3397629 174.256011,39.6537629 174.169011,36.9747629 C174.832011,36.6777629 175.540011,36.8377629 176.234011,36.8487629 C177.488011,36.8687629 178.742011,36.9197629 179.996011,36.9067629 C180.309011,36.9037629 180.813011,36.7867629 180.897011,36.5837629 C181.220011,35.8047629 181.741011,35.0657629 181.714011,34.0577629 C181.413011,34.1397629 181.193011,34.1837629 180.985011,34.2587629 C180.097011,34.5747629 179.181011,34.8327629 178.337011,35.2397629 C177.464011,35.6607629 176.532011,35.4847629 175.650011,35.6957629 C175.016011,35.8477629 174.454011,35.7787629 173.938011,35.4257629 C173.736011,33.5607629 174.598011,31.7987629 176.070011,31.0187629 C177.831011,30.0847629 179.495011,30.2897629 181.058011,31.6127629 C181.250011,31.7747629 181.527011,32.0027629 181.720011,31.9657629 C182.302011,31.8547629 182.405011,32.1717629 182.531011,32.6097629 C182.902011,33.9027629 183.352011,35.1757629 183.691011,36.4777629 C183.936011,37.4217629 184.069011,38.3957629 184.223011,39.3617629 C184.381011,40.3517629 184.505011,41.3477629 184.657011,42.4367629 C185.353011,42.3367629 186.022011,42.2777629 186.673011,42.1377629 C187.170011,42.0297629 187.310011,41.7457629 187.167011,41.2127629 C186.940011,40.3667629 186.674011,39.5317629 186.423011,38.6927629 C186.133011,37.7247629 185.824011,36.7617629 185.564011,35.7847629 C185.516011,35.6017629 185.597011,35.2897629 185.734011,35.1797629 C185.881011,35.0617629 186.166011,35.0807629 186.385011,35.1007629 C186.498011,35.1107629 186.611011,35.2427629 186.704011,35.3387629 C187.710011,36.3887629 188.764011,37.4007629 189.699011,38.5107629 C190.318011,39.2467629 190.766011,40.1267629 191.347011,41.0297629 C192.018011,40.6227629 192.686011,40.2477629 193.310011,39.8107629 C193.421011,39.7337629 193.427011,39.3667629 193.348011,39.1947629 C193.257011,38.9967629 193.020011,38.8637629 192.842011,38.7077629 C191.388011,37.4357629 189.929011,36.1697629 188.481011,34.8907629 C188.212011,34.6537629 187.988011,34.3657629 187.696011,34.0507629 C188.388011,33.4987629 189.000011,33.0267629 189.593011,32.5317629 C190.138011,32.0777629 190.492011,31.5177629 190.399011,30.7677629 C190.326011,30.1747629 190.238011,29.5837629 190.136011,28.8417629 C190.879011,28.1827629 191.694011,27.4117629 192.911011,27.1647629 C192.995011,27.4567629 193.077011,27.6447629 193.101011,27.8387629 C193.262011,29.1467629 193.333011,30.4707629 193.580011,31.7617629 C193.991011,33.9127629 193.981011,36.0767629 193.980011,38.2467629 C193.980011,38.4837629 193.969011,38.7247629 194.008011,38.9567629 C194.122011,39.6387629 194.468011,39.8187629 195.081011,39.5367629 C195.356011,39.4097629 195.630011,39.2807629 195.906011,39.1557629 C196.798011,38.7527629 196.910011,38.4527629 196.649011,37.4737629 C196.389011,36.4957629 196.178011,35.5057629 195.961011,34.5167629 C195.920011,34.3277629 195.955011,34.1217629 195.955011,33.8897629 C196.346011,33.6987629 196.694011,33.4817629 197.072011,33.3527629 C197.967011,33.0447629 198.148011,33.1027629 198.664011,33.9047629 C199.248011,34.8137629 199.807011,35.7407629 200.352011,36.6747629 C200.703011,37.2787629 200.965011,37.3757629 201.575011,37.0367629 C201.959011,36.8237629 202.349011,36.6217629 202.724011,36.3927629 C203.244011,36.0757629 203.285011,35.8687629 202.834011,35.4697629 C201.044011,33.8867629 199.567011,32.0267629 198.132011,30.1367629 C197.273011,29.0057629 196.495011,27.8107629 195.715011,26.6227629 C195.388011,26.1247629 195.482011,25.9027629 196.034011,25.7157629 C196.576011,25.5317629 197.131011,25.3817629 197.688011,25.2487629 C198.247011,25.1167629 198.349011,25.0017629 198.299011,24.4187629 C198.228011,23.6027629 197.962011,23.4327629 197.165011,23.6947629 C197.036011,23.7367629 196.910011,23.7857629 196.783011,23.8337629 C194.734011,24.6157629 192.693011,25.4217629 190.633011,26.1707629 C189.265011,26.6687629 189.252011,26.6327629 189.474011,28.0837629 C189.119011,27.9927629 188.808011,27.8997629 188.491011,27.8357629 C187.966011,27.7307629 187.439011,27.5727629 186.910011,27.5617629 C184.771011,27.5147629 182.787011,28.1877629 180.823011,28.9437629 C180.427011,29.0957629 179.995011,29.1847629 179.572011,29.2347629 C178.230011,29.3937629 176.868011,29.4367629 175.543011,29.6817629 C174.122011,29.9437629 172.982011,30.7127629 172.307011,32.0627629 C172.137011,32.4037629 171.905011,32.7157629 171.701011,33.0407629 C171.617011,33.0067629 171.532011,32.9727629 171.447011,32.9387629 C171.515011,32.5287629 171.557011,32.1127629 171.658011,31.7117629 C171.769011,31.2737629 171.667011,30.9827629 171.221011,30.8407629 C170.868011,30.7267629 170.522011,30.5277629 170.164011,30.5037629 C168.848011,30.4137629 167.529011,30.3427629 166.211011,30.3377629 C164.672011,30.3317629 163.276011,30.7747629 162.151011,31.8897629 C162.132011,31.9087629 162.086011,31.8997629 162.081011,31.9007629 M218.209011,0.0537629176 C218.248011,0.553762918 218.291011,0.841762918 218.291011,1.12976292 C218.295011,10.5987629 218.287011,20.0667629 218.310015,29.5347629 C218.310015,30.1517629 218.097011,30.5087629 217.642011,30.8807629 C212.585011,35.0087629 207.232011,38.6927629 201.443011,41.7237629 C198.384011,43.3257629 195.243011,44.7477629 191.976011,45.8747629 C190.000011,46.5567629 188.032011,47.2837629 186.017011,47.8307629 C183.902011,48.4047629 181.737011,48.7957629 179.591011,49.2527629 C178.764011,49.4277629 177.931011,49.5817629 177.097011,49.7157629 C173.140011,50.3497629 169.161011,50.6567629 165.152011,50.6997629 C161.730011,50.7357629 158.313011,50.6817629 154.910011,50.3657629 C151.976011,50.0937629 149.054011,49.6887629 146.134011,49.2927629 C144.123011,49.0197629 142.109011,48.7287629 140.121011,48.3247629 C136.502011,47.5897629 132.896011,46.7837629 129.293011,45.9697629 C127.311011,45.5217629 125.339011,45.0227629 123.374011,44.5017629 C121.544011,44.0167629 119.732011,43.4657629 117.908011,42.9577629 C116.801011,42.6497629 115.685011,42.3747629 114.577011,42.0697629 C112.587011,41.5227629 110.603011,40.9557629 108.612011,40.4117629 C105.835011,39.6517629 103.054011,38.9007629 100.274011,38.1517629 C97.2960111,37.3497629 94.3290111,36.5027629 91.3350111,35.7707629 C88.0130111,34.9587629 84.6730111,34.2157629 81.3260111,33.5177629 C78.4720111,32.9227629 75.6110111,32.3317629 72.7270111,31.9227629 C69.0710111,31.4037629 65.3970111,30.9447629 61.7140111,30.6947629 C58.2000111,30.4567629 54.6630111,30.4117629 51.1400111,30.4787629 C47.1390111,30.5557629 43.1500111,30.9417629 39.2220111,31.7667629 C36.5090111,32.3367629 33.7770111,32.8587629 31.1170111,33.6227629 C28.5550111,34.3587629 26.0460111,35.3037629 23.5650111,36.2867629 C18.2540111,38.3897629 13.2550111,41.1117629 8.54101107,44.3227629 C5.96601107,46.0767629 3.54001107,48.0497629 1.04501107,49.9217629 C0.791011069,50.1127629 0.526011069,50.2897629 0.115011069,50.5797629 C0.0660110687,50.0837629 0.0130110687,49.7957629 0.0130110687,49.5087629 C0.0110110687,40.1417629 0.0230110687,30.7757629 2.55351296e-15,21.4087629 C2.55351296e-15,20.6427629 0.267011069,20.1537629 0.836011069,19.6867629 C5.53701107,15.8237629 10.5220111,12.3807629 15.8880111,9.50376292 C19.3190111,7.66376292 22.8700111,6.09876292 26.5260111,4.74476292 C29.6170111,3.59976292 32.7620111,2.66376292 35.9740111,1.96676292 C38.9170111,1.32776292 41.8930111,0.868762918 44.8960111,0.532762918 C48.3430111,0.146762918 51.7940111,-0.0192370824 55.2500111,0.00176291763 C59.6910111,0.0287629176 64.1200111,0.338762918 68.5340111,0.910762918 C73.1100111,1.50276292 77.6570111,2.25476292 82.1640111,3.21976292 C86.0090111,4.04176292 89.8240111,5.00776292 93.6370111,5.96976292 C97.0180111,6.82276292 100.383011,7.73776292 103.746011,8.65976292 C106.095011,9.30476292 108.423011,10.0247629 110.771011,10.6777629 C113.479011,11.4297629 116.195011,12.1547629 118.912011,12.8747629 C122.054011,13.7067629 125.192011,14.5597629 128.349011,15.3327629 C131.014011,15.9857629 133.701011,16.5477629 136.382011,17.1327629 C138.268011,17.5447629 140.152011,17.9817629 142.054011,18.3097629 C144.220011,18.6837629 146.402011,18.9727629 148.583011,19.2537629 C150.767011,19.5357629 152.954011,19.8147629 155.147011,19.9997629 C159.002011,20.3247629 162.870011,20.4797629 166.734011,20.3177629 C170.253011,20.1687629 173.763011,19.8787629 177.251011,19.3047629 C180.395011,18.7877629 183.491011,18.1147629 186.561011,17.2637629 C193.428011,15.3607629 199.847011,12.4487629 205.944011,8.79976292 C209.731011,6.53376292 213.337011,4.00476292 216.731011,1.17776292 C217.159011,0.820762918 217.618011,0.500762918 218.209011,0.0537629176" id="Fill-1" fill="#FFFFFF" mask="url(#mask-2)"></path>
      </g>
      <path d="M46.7242,79.2614 C46.7242,75.0884 46.7242,70.9164 46.7242,66.7434 C46.7242,66.5734 46.7262,66.4044 46.7222,66.2344 C46.6872,64.8014 46.2692,64.3154 44.8442,64.0364 C44.5462,63.9784 44.2432,63.9264 43.9552,63.8354 C43.2382,63.6074 42.8052,63.1184 42.7662,62.3554 C42.7232,61.5124 42.6542,60.6594 42.7262,59.8224 C42.8112,58.8424 43.3142,58.3854 44.2962,58.2474 C44.8652,58.1684 45.4452,58.1344 46.0202,58.1334 C51.0762,58.1264 56.1322,58.1594 61.1872,58.1180874 C62.9962,58.1034 63.9052,58.6234 63.7202,60.7134 C63.6552,61.4494 63.5792,62.1874 63.4462,62.9134 C63.3782,63.2854 63.1382,63.5504 62.6942,63.6334 C62.1332,63.7394 61.5902,63.9424 61.0392,64.1034 C59.9462,64.4224 59.5582,64.8674 59.5832,65.9994 C59.6352,68.3714 59.7362,70.7424 59.8252,73.1124 C59.8692,74.2634 59.9062,75.4164 59.9912,76.5644 C60.0602,77.4794 60.2412,77.6364 61.1742,77.7564 C61.5762,77.8074 61.9842,77.8454 62.3892,77.8464 C65.0702,77.8554 67.7502,77.8544 70.4312,77.8504 C71.7022,77.8494 72.0102,77.6034 72.0232,76.3104 C72.0562,72.8504 72.0442,69.3894 72.0292,65.9284 C72.0262,65.1314 71.6782,64.7224 70.8632,64.4694 C70.3132,64.2984 69.7472,64.1804 69.1892,64.0344 C68.3242,63.8084 67.9752,63.4234 67.9412,62.5434 C67.9072,61.6624 67.8942,60.7774 67.9402,59.8974 C68.0082,58.5904 68.4702,58.1424 69.7802,58.1384 C75.5482,58.1234 81.3162,58.1284 87.0842,58.1284 C87.2532,58.1284 87.4232,58.1454 87.5922,58.1614 C88.9922,58.2934 89.3352,58.6734 89.3652,60.0964 C89.3742,60.5354 89.4042,60.9754 89.4402,61.4144 C89.5602,62.8694 88.8882,63.9624 87.4282,64.0194 C87.1612,64.0304 86.8882,64.0934 86.6352,64.1814 C85.6152,64.5354 85.3522,64.8944 85.3582,65.9674 C85.3852,71.1584 85.4202,76.3484 85.4512,81.5384 C85.4832,86.9994 85.5032,92.4614 85.5472,97.9234 C85.5622,99.8554 85.6272,101.7864 85.6772,103.7184 C85.7002,104.6444 86.0092,105.0764 86.8892,105.3714 C87.3372,105.5214 87.8082,105.6044 88.2682,105.7224 C89.3622,106.0044 89.8062,106.5434 89.7925203,107.6774 C89.7812,108.5904 89.7732,109.5124 89.6392,110.4114 C89.4882,111.4314 89.0302,111.8664 88.0192,111.9104 C86.0232,111.9974 84.0222,112.0004 82.0232,112.024649 C81.5502,112.0294 81.0762,111.9574 80.6032,111.9564 C77.1082,111.9504 73.6132,111.9564 70.1182,111.9524 C68.7222,111.9504 68.3262,111.5764 68.2182,110.1614 C68.1662,109.4854 68.0952,108.8064 68.1222,108.1314 C68.1402,107.6694 68.2942,107.2094 68.4202,106.7564 C68.5802,106.1794 68.9782,105.8584 69.5692,105.7394 C70.0002,105.6524 70.4212,105.5144 70.8432,105.3894 C71.9722,105.0554 72.2492,104.6964 72.2512,103.4894 C72.2562,100.5034 72.2502,97.5174 72.2452,94.5314 C72.2412,92.2924 72.2482,90.0524 72.2132,87.8144 C72.2022,87.1414 72.1102,86.4604 71.9702,85.8024 C71.8142,85.0694 71.5202,84.8724 70.7592,84.8174 C70.5562,84.8024 70.3522,84.8104 70.1482,84.8104 C67.2642,84.8104 64.3802,84.8094 61.4962,84.8104 C60.1402,84.8114 59.8032,85.1184 59.8102,86.4794 C59.8252,89.5654 59.8682,92.6524 59.9062,95.7384 C59.9382,98.3834 59.9742,101.0274 60.0162,103.6724 C60.0302,104.6004 60.4072,105.0614 61.3532,105.3254 C61.8432,105.4624 62.3482,105.5494 62.8312,105.7044 C63.7712,106.0064 64.1332,106.5134 64.1462,107.5054 C64.1562,108.2854 64.1612,109.0664 64.1442,109.8464 C64.1132,111.1844 63.6002,111.7164 62.2972,111.7274 C56.6672,111.7744 51.0372,111.8114 45.4072,111.8474 C45.1032,111.8494 44.7852,111.8614 44.4972,111.7824 C43.7362,111.5734 43.2832,111.3084 43.2922,110.4004 C43.3002,109.5554 43.1792,108.7094 43.1832,107.8634 C43.1902,106.4254 43.6052,105.9244 44.9752,105.5694 C46.9912,105.0474 47.0032,105.0324 47.0022,102.9684 C47.0002,100.0164 47.0102,97.0644 46.9922,94.1124 C46.9702,90.5524 46.9202,86.9914 46.8902,83.4314 C46.8782,82.0414 46.8882,80.6514 46.8882,79.2614 L46.7242,79.2614 Z" id="Fill-4" fill="#FFFFFF"></path>
      <path d="M200.6852,112.0788 C196.7832,112.0788 192.8802,112.0948 188.9782,112.0738 C186.0962,112.0588 183.2142,111.9978 180.3312,111.9528 C179.2372,111.9358 178.6022,111.3988 178.5262,110.3058 C178.4602,109.3598 178.4712,108.4038 178.5272,107.4568 C178.5832,106.5258 179.2202,106.0278 180.0472,105.7478 C180.5292,105.5848 181.0262,105.4668 181.5072,105.3018 C182.4602,104.9738 182.7432,104.5898 182.7462,103.5748 C182.7532,100.5878 182.7462,97.6018 182.7452,94.6148 C182.7442,85.4518 182.7432,76.2898 182.7432,67.1268 C182.7432,65.1088 182.7452,65.1088 180.8052,64.5598 C178.7872,63.9878 178.7052,63.8888 178.7032,61.7588 C178.7022,61.1158 178.7162,60.4678 178.7962,59.8308 C178.8862,59.1128 179.3702,58.6818 180.0882,58.6468 C181.2402,58.5918 182.3932,58.5458 183.5452,58.5448 C189.1442,58.5408 194.7442,58.5608 200.3432,58.5528 C202.4462,58.5488 204.5492,58.4608 206.6512,58.4682862 C208.3462,58.4758 210.0402,58.5798 211.7342,58.6188 C213.2102,58.6538 214.1982,59.4018 214.6192,60.7608 C215.0272,62.0798 215.2972,63.4448 215.5732,64.8018 C215.8562,66.1958 216.0632,67.6048 216.3202,69.0038 C216.4762,69.8568 216.4292,70.6898 216.2012,71.5228 C216.0232,72.1688 215.6562,72.6288 214.9772,72.7298 C214.1422,72.8538 213.3012,72.9448 212.4592,73.0128 C211.5562,73.0848 211.0312,72.6048 210.6842,71.7978 C210.1102,70.4608 209.4972,69.1388 208.8662,67.8258 C208.3632,66.7798 207.7142,65.8338 206.7952,65.0918 C206.3532,64.7358 205.8722,64.5518 205.3022,64.5458 C203.0632,64.5218 200.8252,64.4698 198.5872,64.4548 C197.0632,64.4448 196.4332,65.0318 196.2752,66.5468 C196.2472,66.8158 196.2522,67.0888 196.2532,67.3598 C196.2562,71.0248 196.2612,74.6898 196.2662,78.3548 C196.2672,78.5928 196.2572,78.8328 196.2862,79.0668 C196.3782,79.8118 196.7842,80.2968 197.5142,80.3348 C198.4252,80.3828 199.3492,80.3728 200.2542,80.2738 C201.2262,80.1668 201.9752,79.6188 202.3512,78.6998 C202.6182,78.0458 202.7902,77.3498 202.9712,76.6638 C203.1092,76.1418 203.2232,75.6108 203.2962,75.0768 C203.4452,73.9848 204.2182,73.6328 205.1472,73.5208 C205.7502,73.4488 206.3672,73.5018 206.9772,73.4948 C207.9322,73.4828 208.6102,74.0228 208.7812,75.3108 C208.9062,76.2498 208.9712,77.2018 208.9862,78.1498 C209.0442,81.9148 209.0792,85.6798 209.1032,89.4448 C209.1062,90.0178 209.0302,90.5958 208.9462,91.1658 C208.8502,91.8178 208.5052,92.2698 207.8412,92.4878 C206.7452,92.8488 205.6482,92.8858 204.5382,92.5978 C203.9222,92.4378 203.5632,92.0308 203.4392,91.3978 C203.2972,90.6658 203.1942,89.9168 202.9522,89.2178 C202.7242,88.5568 202.3802,87.9238 202.0022,87.3328 C201.8382,87.0758 201.4842,86.8498 201.1802,86.7888 C199.9082,86.5368 198.6272,86.5148 197.3452,86.7938 C196.6752,86.9398 196.3732,87.3528 196.3052,87.9928 C196.2862,88.1608 196.2722,88.3308 196.2722,88.4998 C196.2662,93.3528 196.2602,98.2058 196.2632,103.0578 C196.2632,103.3938 196.2942,103.7418 196.3862,104.0618 C196.6372,104.9328 197.1492,105.5778 198.1002,105.7348 C198.8322,105.8568 199.5692,106.0048 200.3072,106.0248 C201.4922,106.0568 202.6812,106.0228 203.8652,105.9618 C206.1762,105.8428 207.8292,104.6258 208.8832,102.6508 C209.4512,101.5858 209.7972,100.3998 210.2052,99.2548 C210.7062,97.8508 211.1482,96.4268 211.6492,95.0228 C212.0112,94.0088 212.7472,93.5578 213.8812,93.6588 C214.5882,93.7228 215.2892,93.8678 215.9892,93.9938 C216.7552,94.1308 217.1152,94.6338 217.2892,95.3708 C217.5842,96.6228 217.4332,97.8768 217.3302,99.1188 C217.0722,102.2248 216.7602,105.3278 216.4072,108.4248 C216.3332,109.0768 216.0612,109.7328 215.7632,110.3278 C215.1842,111.4828 214.1052,111.8888 212.8972,111.9398 C211.2372,112.0098 209.5752,112.0318 207.9132,112.0428 C205.5042,112.0598 203.0942,112.0478 200.6852,112.0478 C200.6852,112.0578 200.6852,112.0688 200.6852,112.0788" id="Fill-6" fill="#FFFFFF"></path>
      <path d="M109.7007,58.4644 C114.0087,58.4644 118.3167,58.4494 122.6237,58.4724 C124.2167,58.4804 125.8107,58.5394 127.3987,58.6424 C128.6857,58.7264 129.6717,59.3294 130.0497,60.6364 C130.4337,61.9674 130.8107,63.3054 131.0937,64.6604 C131.3987,66.1194 131.5777,67.6034 131.8377,69.0724 C131.9967,69.9654 131.8967,70.8244 131.6387,71.6824 C131.4887,72.1804 131.1847,72.5724 130.6907,72.6504 C129.6277,72.8164 128.5517,72.9264 127.4777,72.9984 C126.9417,73.0344 126.6267,72.6344 126.4137,72.1824 C125.9227,71.1414 125.4717,70.0804 124.9457,69.0584 C124.4207,68.0384 123.8807,67.0174 123.2437,66.0664 C122.5237,64.9914 121.5217,64.4534 120.1357,64.5054 C118.1397,64.5804 116.1357,64.4644 114.1347,64.4544 C112.4737,64.4464 111.8267,65.0214 111.7677,66.6814 C111.7057,68.4434 111.7427,70.2094 111.7417,71.9734 C111.7417,74.1784 111.7417,76.3844 111.7547,78.5894 C111.7617,79.8754 112.1817,80.3254 113.4407,80.3724 C114.1167,80.3984 114.7977,80.3814 115.4737,80.3334 C116.9097,80.2324 117.7567,79.3834 118.1387,78.0594 C118.3437,77.3474 118.4147,76.5974 118.5837,75.8744 C118.9717,74.2144 119.1707,73.5754 121.2627,73.4894 C121.7027,73.4704 122.1447,73.4834 122.5847,73.5054 C123.3437,73.5434 123.8697,73.9314 124.1017,74.6514 C124.2357,75.0654 124.3597,75.5054 124.3677,75.9364 C124.4507,80.5474 124.5117,85.1594 124.5687,89.7704 C124.5737,90.1754 124.5017,90.5814 124.4747,90.9874 C124.4197,91.8024 123.9797,92.2944 123.2077,92.5074 C122.1097,92.8104 121.0157,92.9114 119.9097,92.5204 C119.3767,92.3314 119.0977,92.0134 118.9807,91.4394 C118.7787,90.4484 118.5177,89.4644 118.2147,88.4984 C117.8277,87.2604 116.9657,86.5784 115.6407,86.6094 C114.6967,86.6324 113.7517,86.6934 112.8127,86.7944 C112.1377,86.8684 111.8457,87.3644 111.7757,87.9964 C111.7427,88.2984 111.7407,88.6054 111.7417,88.9104 C111.7467,93.5924 111.7577,98.2744 111.7577,102.9574 C111.7567,103.6524 111.8497,104.3044 112.2857,104.8774 C112.6267,105.3254 113.0317,105.6704 113.6067,105.7494 C114.3767,105.8534 115.1467,106.0004 115.9197,106.0224 C117.0367,106.0554 118.1577,106.0164 119.2747,105.9644 C121.7127,105.8484 123.4117,104.5514 124.4857,102.4554 C125.0367,101.3814 125.3827,100.1984 125.7857,99.0524 C126.2677,97.6834 126.6987,96.2954 127.1777,94.9244 C127.4647,94.1014 128.1337,93.6074 129.4927,93.6824 C130.0647,93.7144 130.6327,93.8494 131.1997,93.9514 C132.3337,94.1554 132.8007,94.6104 132.8497,95.7854 C132.9077,97.1694 132.9407,98.5654 132.8297,99.9444 C132.6187,102.5764 132.3177,105.2024 132.0067,107.8264 C131.9247,108.5244 131.7427,109.2304 131.4877,109.8864 C130.9477,111.2794 129.8117,111.8984 128.3797,111.9404 C125.7687,112.0154 123.1577,112.0624 120.5457,112.0714 C115.7287,112.0884 110.9107,112.0824 106.0927,112.0614 C102.6677,112.0464 99.2437,111.9954 95.8187,111.9514 C94.7627,111.9384 94.0817,111.3674 94.0187,110.2844 C93.9587,109.2404 94.0167,108.1814 94.1127,107.1374 C94.1827,106.3694 94.8037,106.0064 95.4637,105.7674 C95.9717,105.5824 96.5077,105.4734 97.0197,105.2974 C97.9287,104.9864 98.2067,104.6054 98.2097,103.6534 C98.2517,91.4754 98.2927,79.2974 98.3247,67.1184 C98.3297,65.2314 98.2897,65.2054 96.5187,64.6424 C96.2617,64.5614 95.9967,64.5014 95.7327,64.4434 C94.6957,64.2134 94.2627,63.7434 94.2237,62.7064 C94.1937,61.8934 94.2027,61.0774 94.2287,60.2644 C94.2617,59.1844 94.8237,58.6124 95.9637,58.6224 C100.5427,58.6604 105.1217,58.6384 109.7007,58.6384 C109.7007,58.5804 109.7007,58.5224 109.7007,58.4644" id="Fill-8" fill="#FFFFFF"></path>
      <path d="M155.4871,111.9533 C153.9601,111.9533 152.4341,111.9623 150.9071,111.9503 C149.7381,111.9423 149.0661,111.4333 148.7381,110.3373 C147.6211,106.6113 146.5101,102.8843 145.3891,99.1603 C144.4241,95.9563 143.4451,92.7583 142.4801,89.5543 C141.5641,86.5113 140.6741,83.4593 139.7441,80.4203 C138.6961,76.9933 137.6141,73.5773 136.5501,70.1563 C136.0981,68.7033 135.6201,67.2573 135.2201,65.7903 C135.0061,65.0053 134.5621,64.4173 133.8841,64.0833 C132.3541,63.3283 131.9591,62.1113 132.2191,60.5373 C132.3011,60.0383 132.2691,59.5223 132.3231,59.0183 C132.4041,58.2563 132.8231,57.7633 133.5861,57.6263 C134.0841,57.5373 134.5931,57.4613 135.0971,57.4637576 C140.4891,57.5003 145.8811,57.5493 151.2731,57.6043 C152.6141,57.6183 153.0301,57.9823 153.1661,59.3343 C153.2471,60.1413 153.2571,60.9613 153.2191,61.7723 C153.1801,62.6113 152.8031,63.2563 151.9271,63.5183 C151.6391,63.6043 151.3631,63.7453 151.0951,63.8863 C149.7821,64.5813 149.5421,65.0543 149.9271,66.5133 C150.6341,69.1983 151.3901,71.8703 152.1261,74.5473 C152.9251,77.4533 153.7171,80.3613 154.5251,83.2653 C155.3051,86.0703 156.1011,88.8713 156.8881,91.6753 C157.3361,93.2723 157.7771,94.8713 158.2271,96.4683 C158.3071,96.7513 158.3261,97.1143 158.7371,97.1263 C159.1751,97.1403 159.2921,96.7963 159.3781,96.4603 C159.6121,95.5433 159.8531,94.6263 160.0581,93.7023 C160.9581,89.6333 161.8361,85.5593 162.7421,81.4913 C163.3831,78.6163 164.0641,75.7493 164.7151,72.8773 C165.1721,70.8623 165.6231,68.8453 166.0501,66.8243 C166.3831,65.2413 166.0141,64.6103 164.4911,64.0033 C164.1451,63.8653 163.7941,63.7283 163.4721,63.5433 C163.0451,63.2973 162.7151,62.9363 162.7081,62.4153 C162.6951,61.3333 162.6761,60.2483 162.7421,59.1693 C162.7961,58.3063 163.2671,57.7123 164.1771,57.5783 C164.5781,57.5193 164.9851,57.4573 165.3881,57.4637576 C167.1161,57.4933 168.8431,57.5623 170.5721,57.5873 C171.9961,57.6083 173.4211,57.5893 174.8461,57.5823 C176.0031,57.5773 176.6821,58.0293 176.8451,59.1653 C176.9871,60.1633 176.9801,61.1933 176.9291,62.2033 C176.8991,62.8063 176.4251,63.2303 175.9131,63.5273 C175.5341,63.7473 175.1171,63.8983 174.7181,64.0823 C173.9111,64.4543 173.3351,64.9963 173.1041,65.9113 C172.2891,69.1263 171.4181,72.3273 170.6001,75.5413 C169.9241,78.1973 169.2831,80.8623 168.6441,83.5283 C167.8701,86.7563 167.1251,89.9923 166.3461,93.2193 C165.8461,95.2913 165.2971,97.3523 164.7921,99.4233 C164.3181,101.3643 163.8771,103.3133 163.4171,105.2573 C162.9731,107.1333 162.5371,109.0123 162.0601,110.8793 C161.9931,111.1403 161.7521,111.4543 161.5121,111.5533 C161.0251,111.7553 160.4871,111.9183 159.9651,111.9363 C158.4741,111.9853 156.9801,111.9533 155.4871,111.9533" id="Fill-10" fill="#FFFFFF"></path>
      <g id="Group-14" transform="translate(0.000000, 57.379139)">
        <mask id="mask-4" fill="white">
          <use xlink:href="#path-3"></use>
        </mask>
        <g id="Clip-13"></g>
        <path d="M14.2396,28.5615614 C14.2126,31.6575614 14.4616,34.7345614 15.0076,37.7695614 C15.3666,39.7595614 15.8866,41.7415614 16.7866,43.5725614 C17.6826,45.3935614 19.0376,46.8065614 20.9956,47.4895614 C23.3446,48.3095614 25.4686,47.7115614 27.4046,46.2725614 C29.0756,45.0295614 30.2096,43.3375614 31.1926,41.5475614 C31.8116,40.4215614 32.3626,39.2515614 32.8606,38.0665614 C33.5096,36.5265614 34.2356,36.2155614 35.9356,36.5785614 C36.6486,36.7305614 37.3336,37.0955614 37.9836,37.4515614 C39.0676,38.0445614 39.3816,38.7795614 39.1496,39.9875614 C38.7446,42.0985614 38.0486,44.1085614 36.9406,45.9555614 C35.1406,48.9535614 32.9586,51.6055614 29.9566,53.4945614 C28.7386,54.2605614 27.4356,54.7935614 26.0066,55.0155614 C25.5396,55.0885614 25.0876,55.2545614 24.6226,55.3465614 C22.1656,55.8355614 19.6896,55.8235614 17.2496,55.3485614 C14.3866,54.7915614 11.7726,53.6075614 9.5106,51.7295614 C5.8346,48.6775614 3.4366,44.7735614 1.9066,40.2915614 C0.1486,35.1435614 -0.2884,29.8595614 0.1686,24.4635614 C0.4216,21.4755614 0.9796,18.5545614 1.9456,15.7235614 C3.3366,11.6445614 5.2836,7.87056141 8.4146,4.81956141 C10.3656,2.91756141 12.6786,1.60956141 15.2916,0.837561415 C18.7126,-0.172438585 22.1726,-0.236438585 25.6516,0.470561415 C26.3446,0.610561415 27.0226,0.845561415 27.6906,1.08356141 C28.4906,1.36956141 29.2546,1.47256141 30.0326,1.00256141 C31.3466,0.207561415 32.7586,0.122561415 34.2496,0.390561415 C34.8906,0.505561415 35.3246,0.789561415 35.6006,1.32656141 C35.8176,1.74556141 36.0086,2.19056141 36.1276,2.64556141 C36.8626,5.46456141 37.4786,8.30856141 37.8996,11.1935614 C38.0606,12.2985614 38.3086,13.3895614 38.5186,14.4875614 C38.5626,14.7205614 38.6236,14.9515614 38.6586,15.1855614 C38.9016,16.8115614 38.6266,17.3245614 37.0626,17.8475614 C36.0156,18.1975614 34.9436,18.6985614 33.8156,18.1605614 C33.4716,17.9975614 33.0796,17.7455614 32.9156,17.4285614 C32.3116,16.2585614 31.8456,15.0165614 31.2316,13.8515614 C30.4446,12.3585614 29.6866,10.8245614 28.6996,9.46556141 C25.8186,5.49756141 20.7976,6.47156141 18.3236,9.59556141 C17.1026,11.1375614 16.3306,12.8935614 15.8046,14.7665614 C14.9016,17.9815614 14.5076,21.2715614 14.4046,24.6025614 C14.3646,25.9225614 14.2956,27.2415614 14.2396,28.5615614" id="Fill-12" fill="#FFFFFF" mask="url(#mask-4)"></path>
      </g>
      <path d="M20.2441,24.5908 C20.2341,24.5908 20.2231,24.5908 20.2131,24.5908 C20.2131,27.2038 20.2131,29.8168 20.2131,32.4298 C20.2131,32.6668 20.2051,32.9058 20.2261,33.1418 C20.2751,33.6688 20.5141,34.0668 21.0851,34.1058 C21.7201,34.1478 22.3601,34.1638 22.9951,34.1378 C24.8711,34.0608 26.1561,33.0598 27.0321,31.4688 C27.9971,29.7158 28.4371,27.7828 28.6211,25.8328 C28.7991,23.9548 28.9031,22.0638 28.7931,20.1538 C28.6201,17.1698 28.4691,14.1908 27.7961,11.2738 C27.5551,10.2288 27.2401,9.1478 26.7041,8.2338 C25.6221,6.3918 23.8641,5.7168 21.7651,5.8738 C20.6311,5.9578 20.3531,6.2438 20.3441,7.3918 C20.3081,11.8688 20.2751,16.3468 20.2451,20.8238 C20.2371,22.0798 20.2441,23.3348 20.2441,24.5908 M20.2741,39.1888 C16.7131,39.1888 13.1521,39.1998 9.5921,39.1838 C7.9581,39.1768 7.7261,38.9088 7.6891,37.2748 C7.6351,34.8398 7.8291,35.2268 9.5811,34.5148 C10.4831,34.1478 10.6661,33.9148 10.6651,32.9318 C10.6531,24.5158 10.6421,16.1008 10.6311,7.6848 C10.6311,7.4138 10.6431,7.1408 10.6251,6.8708 C10.5721,6.0788 10.2891,5.7208 9.5241,5.4718 C9.3311,5.4098 9.1241,5.3898 8.9321,5.3238 C8.1681,5.0618 7.9011,4.7068 7.8761,3.9068 C7.8601,3.3988 7.8471,2.8878 7.8751,2.3808 C7.9221,1.5428 8.2331,1.2248 9.0711,1.1818 C10.2551,1.1208 11.4411,1.0708 12.6271,1.0558 C14.3231,1.0358 16.0211,1.0298 17.7171,1.0578 C21.0391,1.1138 24.3611,1.1848 27.6821,1.2748 C30.1971,1.3418 32.1231,2.6448 33.7691,4.3858 C35.5461,6.2658 36.6561,8.5478 37.4191,11.0028 C39.0151,16.1388 38.9801,21.3628 38.1831,26.6128 C37.9901,27.8808 37.7721,29.1748 37.3281,30.3688 C35.3161,35.7798 31.4631,39.0548 25.4651,39.3048 C23.7371,39.3768 22.0041,39.3158 20.2741,39.3158 C20.2741,39.2738 20.2741,39.2308 20.2741,39.1888" id="Fill-15" fill="#FFFFFF"></path>
      <path d="M82.8676,13.9326 C82.8496,14.2836 82.8166,14.6136 82.8166,14.9436 C82.8136,20.7466 82.8146,26.5496 82.8166,32.3526 C82.8166,32.6236 82.8076,32.8996 82.8536,33.1646 C82.9786,33.8746 83.3006,34.4426 84.0486,34.6656 C84.3086,34.7436 84.5626,34.8406 84.8246,34.9076 C85.5016,35.0806 85.8926,35.5166 85.9106,36.2036 C85.9306,36.9456 85.9056,37.6926 85.8376,38.4306 C85.7866,38.9776 85.4006,39.2516 84.8616,39.2906 C84.5916,39.3106 84.3196,39.3106 84.0476,39.3106 C81.7066,39.3096 79.3656,39.3136 77.0236,39.3036 C75.6596,39.2976 75.2866,38.9526 75.1596,37.5866 C75.1286,37.2516 75.1576,36.9096 75.1736,36.5706 C75.2166,35.6996 75.6256,35.1166 76.4976,34.8856 C77.3826,34.6506 77.7036,33.9596 77.8286,33.1446 C77.8746,32.8456 77.8496,32.5346 77.8496,32.2296 C77.8506,23.9496 77.8506,15.6696 77.8506,7.3896 C77.8506,7.1516 77.8546,6.9136 77.8446,6.6766 C77.8186,6.0386 77.5286,5.5816 76.9106,5.3636 C76.6226,5.2616 76.3316,5.1706 76.0416,5.0746 C75.5666,4.9156 75.3206,4.5856 75.3186,4.0856 C75.3156,3.4406 75.2916,2.7946 75.3326,2.1516 C75.3936,1.2016 75.8766,0.7336 76.8496,0.732417947 C79.8346,0.7296 82.8206,0.7646 85.8056,0.7696 C86.7176,0.7716 87.3796,1.1986 87.7966,1.9576 C88.3986,3.0536 88.9626,4.1746 89.4926,5.3086 C90.5386,7.5456 91.5386,9.8056 92.5786,12.0456 C94.0036,15.1156 95.4456,18.1786 96.8916,21.2396 C97.0396,21.5536 97.0666,21.9826 97.6426,22.1136 C97.6956,21.8536 97.7876,21.6136 97.7886,21.3746 C97.7936,16.5896 97.7936,11.8046 97.7826,7.0206 C97.7806,6.1126 97.4216,5.6546 96.6066,5.3196 C96.1496,5.1326 95.5806,4.9996 95.2986,4.6506 C94.8396,4.0836 94.9006,3.3096 94.9576,2.5916 C94.9686,2.4566 94.9956,2.3226 95.0236,2.1896 C95.2766,1.0106 95.5286,0.7836 96.7376,0.7776 C99.1126,0.7656 101.4876,0.7746 103.8636,0.7816 C104.1336,0.7816 104.4076,0.7996 104.6726,0.8506 C105.3436,0.9796 105.6386,1.2496 105.6986,1.9186 C105.7626,2.6246 105.7346,3.3386 105.7526,4.0486 C105.7686,4.6866 105.4436,5.0596 104.8546,5.2336 C104.5946,5.3106 104.3336,5.3866 104.0706,5.4496 C103.1926,5.6596 102.8176,6.0926 102.7596,6.9966 C102.7416,7.2666 102.7526,7.5386 102.7526,7.8106 C102.7526,17.5496 102.7536,27.2886 102.7536,37.0276 C102.7536,37.2996 102.7686,37.5726 102.7446,37.8416 C102.6546,38.8566 102.1916,39.3086 101.1816,39.2976 C99.4536,39.2796 97.7256,39.1916 95.9986,39.2006 C95.0736,39.2046 94.5756,38.7756 94.2246,37.9736 C93.3306,35.9266 92.3896,33.9006 91.4766,31.8616 C88.9716,26.2626 86.4716,20.6606 83.9716,15.0596 C83.8756,14.8426 83.8206,14.6076 83.7166,14.3956 C83.5816,14.1236 83.4366,13.8396 82.8676,13.9326" id="Fill-17" fill="#FFFFFF"></path>
      <g id="Group-21" transform="translate(40.624579, 0.000000)">
        <mask id="mask-6" fill="white">
          <use xlink:href="#path-5"></use>
        </mask>
        <g id="Clip-20"></g>
        <path d="M10.2151212,20.5952 C10.3091212,22.1852 10.3531212,23.7792 10.5091212,25.3632 C10.7601212,27.8982 11.2251212,30.3892 12.5041212,32.6492 C13.2341212,33.9372 14.2401212,34.8132 15.8151212,34.8013218 C17.3111212,34.7902 18.3131212,33.9912 18.9141212,32.7022 C19.9551212,30.4662 20.4881212,28.0722 20.6671212,25.6352 C20.8181212,23.5822 20.6841212,21.5092 20.7031212,19.4452 C20.7291212,16.6532 20.3901212,13.8982 19.8341212,11.1712 C19.5161212,9.6132 19.0361212,8.1022 18.2631212,6.6872 C16.9231212,4.2322 13.7191212,4.4732 12.4781212,6.7042 C11.5931212,8.2932 11.0271212,9.9872 10.7751212,11.7832 C10.3641212,14.7052 10.0601212,17.6352 10.2151212,20.5952 M30.9261212,20.6332 C30.8501212,23.6132 30.5051212,26.5362 29.4401212,29.3212 C27.9221212,33.2872 25.5921212,36.6302 21.7411212,38.6752 C19.2331212,40.0062 16.5301212,40.2572 13.7461212,39.9172 C11.3451212,39.6242 9.12812118,38.8262 7.19512118,37.3742 C6.31012118,36.7092 5.47612118,35.9332 4.76612118,35.0852 C2.12612118,31.9252 0.783121178,28.2262 0.283121178,24.1602 C-0.171878822,20.4542 -0.123878822,16.7842 0.762121178,13.1532 C1.41612118,10.4742 2.37712118,7.8942 4.04812118,5.6722 C6.53912118,2.3562 9.90812118,0.5422 14.0361212,0.0962 C16.3391212,-0.1538 18.5691212,0.0672 20.7151212,0.9452 C24.1521212,2.3502 26.7251212,4.6662 28.2151212,8.1192 C29.3061212,10.6472 30.1361212,13.2522 30.4921212,15.9862 C30.6931212,17.5272 30.7851212,19.0832 30.9261212,20.6332" id="Fill-19" fill="#FFFFFF" mask="url(#mask-6)"></path>
      </g>
      <path d="M197.8537,155.3781 C197.2077,154.4131 196.6627,153.6001 196.1177,152.7861 C196.0437,152.8191 195.9687,152.8521 195.8947,152.8851 C195.8177,153.9391 196.3237,154.8941 196.3827,156.0991 C196.9377,155.8261 197.3107,155.6441 197.8537,155.3781 M185.7607,157.9531 C187.0867,157.3591 187.9357,156.5921 188.5367,155.5451 C188.9737,154.7841 188.8827,154.1541 188.2927,153.5091 C187.3877,152.5171 185.7807,152.3371 184.3707,153.1571 C184.8067,154.6611 185.2527,156.2001 185.7607,157.9531 M153.4697,159.3041 C153.9367,159.4671 154.3717,159.7311 154.8187,159.7541 C156.7387,159.8501 158.6667,159.9491 160.5407,159.3421 C161.2547,159.1101 161.8617,158.0581 161.5287,157.4911 C160.7577,156.1821 159.6617,155.2391 158.1207,155.0271 C155.8017,154.7071 153.5247,156.7671 153.4697,159.3041" id="Fill-22" fill="#FFFFFF"></path>
      <path d="M153.4695,159.3043 C153.5245,156.7663 155.8015,154.7073 158.1215,155.0263 C159.6615,155.2383 160.7585,156.1823 161.5285,157.4903 C161.8615,158.0573 161.2545,159.1103 160.5415,159.3413 C158.6675,159.9493 156.7385,159.8503 154.8185,159.7543 C154.3715,159.7313 153.9365,159.4673 153.4695,159.3043" id="Fill-52" fill="#FFFFFF"></path>
      <path d="M185.7607,157.9535 C185.2527,156.1995 184.8067,154.6615 184.3707,153.1565 C185.7807,152.3375 187.3877,152.5175 188.2927,153.5095 C188.8827,154.1545 188.9737,154.7835 188.5367,155.5445 C187.9357,156.5925 187.0867,157.3585 185.7607,157.9535" id="Fill-54" fill="#FFFFFF"></path>
      <path d="M197.8537,155.3781 C197.3107,155.6441 196.9377,155.8261 196.3827,156.0991 C196.3237,154.8941 195.8177,153.9391 195.8947,152.8851 C195.9687,152.8521 196.0437,152.8191 196.1177,152.7861 C196.6627,153.6001 197.2077,154.4131 197.8537,155.3781" id="Fill-56" fill="#FFFFFF"></path>
      <path d="M136.9077,151.6236 C137.7977,152.0896 138.5067,152.3866 139.1317,152.8056 C140.1197,153.4686 140.4337,154.7086 139.2427,155.6796 C138.3497,156.4076 137.2827,156.5656 136.1417,156.8186 C135.8697,154.9926 136.3657,153.4346 136.9077,151.6236" id="Fill-58" fill="#FFFFFF"></path>
      <path d="M52.1133,146.6758 C51.9833,145.3538 51.8073,144.1848 51.7643,143.0098 C51.6813,140.7098 51.6593,138.4078 51.6383,136.1058 C51.6303,135.1868 51.8053,135.0708 52.6603,135.3328 C53.0783,135.4608 53.4843,135.6298 53.8893,135.7938 C55.5613,136.4698 56.2443,137.8248 56.4383,139.5158 C56.5003,140.0508 56.5333,140.5948 56.6553,141.1178 C56.9363,142.3258 56.6433,143.4878 56.3213,144.6138 C55.9943,145.7568 54.5663,146.6548 53.3483,146.6748 C52.9823,146.6808 52.6153,146.6758 52.1133,146.6758" id="Fill-60" fill="#FFFFFF"></path>
      <path d="M82.2031,144.3749 C82.0101,143.3689 82.3371,142.4139 82.7781,141.4939 C83.4571,140.0779 84.5981,139.2519 86.1471,139.0469 C87.0981,138.9209 87.9991,139.2659 88.6821,139.8589 C90.1711,141.1509 91.2491,142.6859 91.2371,144.8109 C91.2291,146.1659 91.0101,147.4459 90.2601,148.5599 C89.4051,149.8309 88.2431,150.6519 86.5961,150.4719 C85.4621,150.3489 84.5571,149.7829 83.8411,148.9359 C82.7461,147.6389 81.9791,146.2019 82.2031,144.3749" id="Fill-62" fill="#FFFFFF"></path>
      <path d="M29.3174,144.1621 C28.6184,142.6331 28.3564,141.0441 27.9034,139.4991 C29.1354,138.6721 30.3024,138.9551 31.3874,139.5661 C32.3864,140.1281 32.6184,141.1521 31.9364,142.0721 C31.4044,142.7901 30.6854,143.3731 30.0174,143.9821 C29.8724,144.1141 29.5924,144.0971 29.3174,144.1621" id="Fill-64" fill="#FFFFFF"></path>
      <path d="M42.6068,142.3473 C42.2518,142.4843 42.0128,142.6063 41.7598,142.6663 C41.4558,142.7383 41.2048,142.6053 41.1738,142.2803 C41.0898,141.3913 41.0848,140.5013 41.3448,139.6063 C41.9758,140.4013 42.4068,141.2593 42.6068,142.3473" id="Fill-66" fill="#FFFFFF"></path>
    </g>
  </g>
</svg>
