<?xml version="1.0" encoding="UTF-8"?>
<svg xmlns="http://www.w3.org/2000/svg" xmlns:xlink="http://www.w3.org/1999/xlink" width="200px" height="159px" viewBox="0 0 200 159" version="1.1">
  <title>generic-logo</title>
  <g id="generic-logo" stroke="none" stroke-width="1" fill="none" fill-rule="evenodd">
    <path d="M31.808,72 L33.024,63.872 L41.664,63.872 L42.88,72 L49.984,72 L42.816,27.2 L32.512,27.2 L25.344,72 L31.808,72 Z M40.704,57.792 L33.92,57.792 L37.312,35.136 L40.704,57.792 Z M75.328,74.752 L75.328,68.48 L74.688,68.48 C73.472,68.48 73.024,68.352 72.704,67.52 C73.6,65.856 74.048,63.744 74.048,61.248 L74.048,37.952 C74.048,30.72 70.272,26.688 63.36,26.688 C56.448,26.688 52.672,30.72 52.672,37.952 L52.672,61.248 C52.672,68.48 56.448,72.512 63.36,72.512 C65.216,72.512 66.816,72.192 68.288,71.68 C69.248,73.664 71.232,74.752 74.368,74.752 L75.328,74.752 Z M63.36,66.112 C61.12,66.112 59.712,64.96 59.712,61.696 L59.712,37.504 C59.712,34.24 61.12,33.088 63.36,33.088 C65.6,33.088 67.008,34.24 67.008,37.504 L67.008,61.696 C67.008,64.96 65.6,66.112 63.36,66.112 Z M88.768,72.576 C95.68,72.576 99.264,68.544 99.264,61.312 L99.264,27.2 L92.608,27.2 L92.608,61.76 C92.608,65.024 91.2,66.112 88.96,66.112 C86.72,66.112 85.312,65.024 85.312,61.76 L85.312,27.2 L78.272,27.2 L78.272,61.312 C78.272,68.544 81.856,72.576 88.768,72.576 Z M108.608,24.832 L115.136,17.728 L108.224,17.728 L103.872,24.832 L108.608,24.832 Z M111.104,72 L111.104,27.2 L104.064,27.2 L104.064,72 L111.104,72 Z M141.696,72 L148.608,27.2 L142.144,27.2 L136.768,63.744 L131.392,27.2 L124.288,27.2 L131.2,72 L141.696,72 Z M156.48,72 L157.696,63.872 L166.336,63.872 L167.552,72 L174.656,72 L167.488,27.2 L157.184,27.2 L150.016,72 L156.48,72 Z M165.376,57.792 L158.592,57.792 L161.984,35.136 L165.376,57.792 Z" id="aquíva" fill="#F2F0E6" fill-rule="nonzero"></path>
    <path d="M37.152,130 L37.152,91.6 L44.512,91.6 L44.512,85.2 L22.752,85.2 L22.752,91.6 L30.112,91.6 L30.112,130 L37.152,130 Z M57.76,130.576 C64.672,130.576 68.256,126.544 68.256,119.312 L68.256,85.2 L61.6,85.2 L61.6,119.76 C61.6,123.024 60.192,124.112 57.952,124.112 C55.712,124.112 54.304,123.024 54.304,119.76 L54.304,85.2 L47.264,85.2 L47.264,119.312 C47.264,126.544 50.848,130.576 57.76,130.576 Z M101.6,130 L101.6,123.6 L90.016,123.6 L90.016,85.2 L82.976,85.2 L82.976,130 L101.6,130 Z M114.784,130.512 C121.696,130.512 125.472,126.48 125.472,119.248 L125.472,95.952 C125.472,88.72 121.696,84.688 114.784,84.688 C107.872,84.688 104.096,88.72 104.096,95.952 L104.096,119.248 C104.096,126.48 107.872,130.512 114.784,130.512 Z M114.784,124.112 C112.544,124.112 111.136,122.96 111.136,119.696 L111.136,95.504 C111.136,92.24 112.544,91.088 114.784,91.088 C117.024,91.088 118.432,92.24 118.432,95.504 L118.432,119.696 C118.432,122.96 117.024,124.112 114.784,124.112 Z M139.936,130.512 C146.848,130.512 150.432,126.48 150.432,119.248 L150.432,105.04 L140.576,105.04 L140.576,111.44 L143.776,111.44 L143.776,119.696 C143.776,122.96 142.368,124.048 140.128,124.048 C137.888,124.048 136.48,122.96 136.48,119.696 L136.48,95.504 C136.48,92.24 137.888,91.088 140.128,91.088 C142.368,91.088 143.776,92.24 143.776,95.504 L143.776,100.304 L150.432,100.304 L150.432,95.952 C150.432,88.72 146.848,84.688 139.936,84.688 C133.024,84.688 129.44,88.72 129.44,95.952 L129.44,119.248 C129.44,126.48 133.024,130.512 139.936,130.512 Z M165.088,130.512 C172,130.512 175.776,126.48 175.776,119.248 L175.776,95.952 C175.776,88.72 172,84.688 165.088,84.688 C158.176,84.688 154.4,88.72 154.4,95.952 L154.4,119.248 C154.4,126.48 158.176,130.512 165.088,130.512 Z M165.088,124.112 C162.848,124.112 161.44,122.96 161.44,119.696 L161.44,95.504 C161.44,92.24 162.848,91.088 165.088,91.088 C167.328,91.088 168.736,92.24 168.736,95.504 L168.736,119.696 C168.736,122.96 167.328,124.112 165.088,124.112 Z" id="tulogo" fill="#F2F0E6" fill-rule="nonzero"></path>
  </g>
</svg>
