<?xml version="1.0" encoding="UTF-8"?>
<svg xmlns="http://www.w3.org/2000/svg" xmlns:xlink="http://www.w3.org/1999/xlink" width="256px" height="74px" viewBox="0 0 256 74" version="1.1">
  <title>Group</title>
  <g id="a" stroke="none" stroke-width="1" fill="none" fill-rule="evenodd">
    <g id="Desktop" transform="translate(-355.000000, -278.000000)" fill="#FFFFFF" fill-rule="nonzero">
      <g id="Group" transform="translate(355.120000, 278.096000)">
        <path d="M21.648,37.824 C25.008,37.76 27.992,37.152 30.6,36 C33.208,34.848 35.408,33.344 37.2,31.488 C38.992,29.632 40.344,27.592 41.256,25.368 C42.168,23.144 42.624,20.992 42.624,18.912 C42.624,16.864 42.176,14.736 41.28,12.528 C40.384,10.32 39.064,8.272 37.32,6.384 C35.576,4.496 33.424,2.968 30.864,1.8 C28.304,0.632 25.36,0.032 22.032,2.84217094e-14 C17.296,0.064 13.288,1.024 10.008,2.88 C6.728,4.736 4.24,7.112 2.544,10.008 C0.848,12.904 0,15.872 0,18.912 C0,21.856 0.84,24.776 2.52,27.672 C4.2,30.568 6.648,32.968 9.864,34.872 C13.08,36.776 17.008,37.76 21.648,37.824 Z M21.792,37.2 C18.432,37.2 15.568,36.016 13.2,33.648 C11.184,31.664 9.664,29.104 8.64,25.968 C7.744,23.28 7.296,20.912 7.296,18.864 C7.296,14.704 8.352,10.832 10.464,7.248 C13.024,2.896 16.864,0.672 21.984,0.576 C26.624,0.608 30.112,2.832 32.448,7.248 C34.4,10.864 35.376,14.72 35.376,18.816 C35.376,20.192 35.224,21.704 34.92,23.352 C34.616,25 34.136,26.632 33.48,28.248 C32.824,29.864 31.968,31.352 30.912,32.712 C29.856,34.072 28.576,35.16 27.072,35.976 C25.568,36.792 23.808,37.2 21.792,37.2 Z M68.224,37.152 L68.224,19.248 L87.04,19.248 L87.04,18.576 L68.224,18.576 L68.224,1.344 L90.592,1.344 L90.592,0.624 L61.744,0.624 L61.744,37.152 L68.224,37.152 Z M135.488,37.152 L135.488,36.432 L113.168,36.432 L113.168,19.248 L131.936,19.248 L131.936,18.576 L113.168,18.576 L113.168,1.344 L135.488,1.344 L135.488,0.624 L106.688,0.624 L106.688,37.152 L135.488,37.152 Z M181.536,37.104 L181.536,36.384 L159.216,36.384 L159.216,0.576 L152.736,0.576 L152.736,37.104 L181.536,37.104 Z M202.096,37.104 L202.096,0.576 L195.616,0.576 L195.616,37.104 L202.096,37.104 Z M255.056,37.104 L235.76,0.576 L216.896,37.056 L217.856,37.056 L224,25.152 L242.384,25.152 L248.72,37.104 L255.056,37.104 Z M242.048,24.48 L224.384,24.48 L233.12,7.632 L242.048,24.48 Z" id="OFELIA"></path>
        <path d="M59.5318889,72.904 L59.5318889,72.134 L53.4698889,72.134 L53.4698889,68.158 L59.5318889,68.158 L59.5318889,67.402 L53.4698889,67.402 L53.4698889,63.454 L59.5318889,63.454 L59.5318889,62.684 L52.6578889,62.684 L52.6578889,72.904 L59.5318889,72.904 Z M69.0161111,72.904 L72.1661111,68.172 L75.3441111,72.904 L76.2541111,72.904 L72.6561111,67.584 L76.0021111,62.684 L75.0641111,62.684 L72.1941111,67.01 L69.3101111,62.684 L68.3721111,62.684 L71.7041111,67.598 L68.0781111,72.904 L69.0161111,72.904 Z M85.8363333,72.904 L85.8363333,69.782 L88.7623333,69.782 C89.3223333,69.782 89.8333333,69.691 90.2953333,69.509 C90.7573333,69.327 91.154,69.0773333 91.4853333,68.76 C91.8166667,68.4426667 92.071,68.067 92.2483333,67.633 C92.4256667,67.199 92.5143333,66.73 92.5143333,66.226 C92.5143333,65.722 92.4256667,65.253 92.2483333,64.819 C92.071,64.385 91.819,64.0116667 91.4923333,63.699 C91.1656667,63.3863333 90.769,63.139 90.3023333,62.957 C89.8356667,62.775 89.3176667,62.684 88.7483333,62.684 L88.7483333,62.684 L85.0243333,62.684 L85.0243333,72.904 L85.8363333,72.904 Z M88.7203333,69.026 L85.8363333,69.026 L85.8363333,63.426 L88.7063333,63.426 C89.173,63.426 89.5906667,63.496 89.9593333,63.636 C90.328,63.776 90.6406667,63.972 90.8973333,64.224 C91.154,64.476 91.35,64.7723333 91.4853333,65.113 C91.6206667,65.4536667 91.6883333,65.8246667 91.6883333,66.226 C91.6883333,66.618 91.6206667,66.9843333 91.4853333,67.325 C91.35,67.6656667 91.1563333,67.962 90.9043333,68.214 C90.6523333,68.466 90.342,68.6643333 89.9733333,68.809 C89.6046667,68.9536667 89.187,69.026 88.7203333,69.026 L88.7203333,69.026 Z M108.550556,72.904 L108.550556,72.134 L102.488556,72.134 L102.488556,68.158 L108.550556,68.158 L108.550556,67.402 L102.488556,67.402 L102.488556,63.454 L108.550556,63.454 L108.550556,62.684 L101.676556,62.684 L101.676556,72.904 L108.550556,72.904 Z M118.650778,72.904 L118.650778,69.096 L122.360778,69.096 L124.488778,72.904 L125.398778,72.904 L123.102778,68.872 C123.438778,68.7693333 123.744444,68.6176667 124.019778,68.417 C124.295111,68.2163333 124.530778,67.9853333 124.726778,67.724 C124.922778,67.4626667 125.074444,67.1733333 125.181778,66.856 C125.289111,66.5386667 125.342778,66.212 125.342778,65.876 C125.342778,65.4373333 125.258778,65.0243333 125.090778,64.637 C124.922778,64.2496667 124.687111,63.9113333 124.383778,63.622 C124.080444,63.3326667 123.723444,63.104 123.312778,62.936 C122.902111,62.768 122.458778,62.684 121.982778,62.684 L121.982778,62.684 L117.838778,62.684 L117.838778,72.904 L118.650778,72.904 Z M121.912778,68.354 L118.650778,68.354 L118.650778,63.426 L121.926778,63.426 C122.309444,63.426 122.661778,63.489 122.983778,63.615 C123.305778,63.741 123.581111,63.9136667 123.809778,64.133 C124.038444,64.3523333 124.215778,64.6113333 124.341778,64.91 C124.467778,65.2086667 124.530778,65.5306667 124.530778,65.876 C124.530778,66.2026667 124.467778,66.513 124.341778,66.807 C124.215778,67.101 124.036111,67.3646667 123.802778,67.598 C123.569444,67.8313333 123.294111,68.0156667 122.976778,68.151 C122.659444,68.2863333 122.304778,68.354 121.912778,68.354 L121.912778,68.354 Z M135.429,72.904 L135.429,62.684 L134.631,62.684 L134.631,72.904 L135.429,72.904 Z M151.997222,72.904 L151.997222,72.134 L145.935222,72.134 L145.935222,68.158 L151.997222,68.158 L151.997222,67.402 L145.935222,67.402 L145.935222,63.454 L151.997222,63.454 L151.997222,62.684 L145.123222,62.684 L145.123222,72.904 L151.997222,72.904 Z M162.069444,72.904 L162.069444,63.846 L168.551444,72.904 L169.419444,72.904 L169.419444,62.684 L168.635444,62.684 L168.635444,71.7 L162.181444,62.684 L161.285444,62.684 L161.285444,72.904 L162.069444,72.904 Z M183.915667,73.044 C184.429,73.044 184.919,72.9786667 185.385667,72.848 C185.852333,72.7173333 186.284,72.5306667 186.680667,72.288 C187.077333,72.0453333 187.434333,71.7536667 187.751667,71.413 C188.069,71.0723333 188.339667,70.6966667 188.563667,70.286 L188.563667,70.286 L187.849667,69.922 C187.485667,70.622 186.963,71.189 186.281667,71.623 C185.600333,72.057 184.811667,72.274 183.915667,72.274 C183.290333,72.274 182.709333,72.1573333 182.172667,71.924 C181.636,71.6906667 181.169333,71.371 180.772667,70.965 C180.376,70.559 180.063333,70.083 179.834667,69.537 C179.606,68.991 179.491667,68.41 179.491667,67.794 C179.491667,67.178 179.606,66.597 179.834667,66.051 C180.063333,65.505 180.376,65.029 180.772667,64.623 C181.169333,64.217 181.636,63.895 182.172667,63.657 C182.709333,63.419 183.290333,63.3 183.915667,63.3 C184.746333,63.3 185.493,63.5053333 186.155667,63.916 C186.818333,64.3266667 187.341,64.8633333 187.723667,65.526 L187.723667,65.526 L188.423667,65.12 C188.190333,64.7373333 187.915,64.3873333 187.597667,64.07 C187.280333,63.7526667 186.928,63.482 186.540667,63.258 C186.153333,63.034 185.738,62.859 185.294667,62.733 C184.851333,62.607 184.391667,62.544 183.915667,62.544 C183.187667,62.544 182.506333,62.6816667 181.871667,62.957 C181.237,63.2323333 180.681667,63.608 180.205667,64.084 C179.729667,64.56 179.354,65.1153333 179.078667,65.75 C178.803333,66.3846667 178.665667,67.066 178.665667,67.794 C178.665667,68.522 178.803333,69.2033333 179.078667,69.838 C179.354,70.4726667 179.729667,71.028 180.205667,71.504 C180.681667,71.98 181.237,72.3556667 181.871667,72.631 C182.506333,72.9063333 183.187667,73.044 183.915667,73.044 Z M204.445889,72.904 L204.445889,72.134 L198.383889,72.134 L198.383889,68.158 L204.445889,68.158 L204.445889,67.402 L198.383889,67.402 L198.383889,63.454 L204.445889,63.454 L204.445889,62.684 L197.571889,62.684 L197.571889,72.904 L204.445889,72.904 Z" id="EXPERIENCE"></path>
      </g>
    </g>
  </g>
</svg>
