<?xml version="1.0" encoding="UTF-8"?>
<svg width="11px" height="10px" viewBox="0 0 11 10" version="1.1" xmlns="http://www.w3.org/2000/svg" xmlns:xlink="http://www.w3.org/1999/xlink">
    <title>arrow-left-solid</title>
    <g id="Page-1" stroke="none" stroke-width="1" fill="none" fill-rule="evenodd">
        <g id="Desktop-Copy" transform="translate(-513.000000, -372.000000)" fill="#F2F0E6" fill-rule="nonzero">
            <g id="arrow-left-solid" transform="translate(513.000000, 372.000000)">
                <path d="M11,5 C11,5.4609375 10.6703162,5.83333333 10.2348382,5.83333333 L2.68901464,5.83333333 L5.28219953,8.578125 C5.58974044,8.90364583 5.58974044,9.43098958 5.28219953,9.75651042 C5.12719892,9.91927083 4.92545209,10 4.72370525,10 C4.52195842,10 4.32070365,9.91861979 4.16717923,9.75585938 L0.230655677,5.58919271 C-0.0768852257,5.26367188 -0.0768852257,4.73632812 0.230655677,4.41080729 L4.16717923,0.244140625 C4.47472014,-0.0813802083 4.9729364,-0.0813802083 5.2804773,0.244140625 C5.58801821,0.569661458 5.58801821,1.09700521 5.2804773,1.42252604 L2.68901464,4.16666667 L10.2348382,4.16666667 C10.6703162,4.16666667 11,4.5390625 11,5 Z" id="Path"></path>
            </g>
        </g>
    </g>
</svg>