<?xml version="1.0" encoding="UTF-8"?>
<svg width="16px" height="16px" viewBox="0 0 16 16" version="1.1" xmlns="http://www.w3.org/2000/svg" xmlns:xlink="http://www.w3.org/1999/xlink">
    <title>soup-regular</title>
    <g id="Page-1" stroke="none" stroke-width="1" fill="none" fill-rule="evenodd">
        <g id="Desktop-Copy" transform="translate(-665.000000, -274.000000)" fill="#F2F0E6" fill-rule="nonzero">
            <g id="soup-regular" transform="translate(665.000000, 274.000000)">
                <path d="M9.470625,4.57815903 C9.51220703,4.8218435 9.72341752,5.0000236 9.970625,5.0000236 L10.48625,5.0000236 C10.7925,5.0000236 11.03625,4.73440856 10.995625,4.43753445 C10.878733,3.55562918 10.4771412,2.73598946 9.851875,2.1031664 C9.40417067,1.64914524 9.11484764,1.06282948 9.026875,0.431296383 C8.99074969,0.181878038 8.77575979,-0.00239846411 8.52375,2.35995814e-05 L8.01125,2.35995814e-05 C7.705,2.35995814e-05 7.464375,0.265671876 7.501875,0.562545992 C7.62222287,1.55760891 8.0683043,2.48492813 8.770625,3.20003813 C9.14156464,3.57546172 9.38624784,4.05718033 9.470625,4.57815903 Z M15,6.00002979 L1,6.00002979 C0.44771525,6.00002979 0,6.44774371 0,7.00002979 C0,9.959393 1.61125,12.5362603 4,13.9203187 L4,15.000003 C4,15.5522861 4.44771525,16 5,16 L11,16 C11.5522847,16 12,15.5522861 12,15.000003 L12,13.9203187 C14.38875,12.5362603 16,9.959393 16,7.00002979 C16,6.44774371 15.5522847,6.00002979 15,6.00002979 Z M10.5,13.0556338 L10.5,14.5000045 L5.5,14.5000045 L5.5,13.0556338 C3.389375,11.8328249 1.7415625,10.3343919 1.519375,7.50002532 L14.480625,7.50002532 C14.2628125,10.2790795 12.6690625,11.799075 10.5,13.0556338 Z M5.9721875,4.57815903 C6.01376953,4.8218435 6.22498002,5.0000236 6.4721875,5.0000236 L6.9878125,5.0000236 C7.2940625,5.0000236 7.5378125,4.73440856 7.4971875,4.43753445 C7.38029548,3.55562918 6.97870374,2.73598946 6.3534375,2.1031664 C5.90573317,1.64914524 5.61641014,1.06282948 5.5284375,0.431296383 C5.49231219,0.181878038 5.27732229,-0.00239846411 5.0253125,2.35995814e-05 L4.5128125,2.35995814e-05 C4.36802095,-0.000643114831 4.22976907,0.060281257 4.13257856,0.167607889 C4.03538804,0.274934522 3.98843276,0.418532779 4.0034375,0.562545992 C4.12378537,1.55760891 4.5698668,2.48492813 5.2721875,3.20003813 C5.64312714,3.57546172 5.88781034,4.05718033 5.9721875,4.57815903 Z" id="Shape"></path>
            </g>
        </g>
    </g>
</svg>