<?xml version="1.0" encoding="UTF-8"?>
<svg width="100px" height="100px" viewBox="0 0 100 100" version="1.1" xmlns="http://www.w3.org/2000/svg" xmlns:xlink="http://www.w3.org/1999/xlink">
    <title>Group 2</title>
    <g id="Page-1" stroke="none" stroke-width="1" fill="none" fill-rule="evenodd">
        <g id="Group-2">
            <rect id="Rectangle" x="0" y="0" width="100" height="100"></rect>
            <path d="M90.599455,58.5831063 C92.029075,58.5831063 93.1880109,59.7420422 93.1880109,61.1716621 L93.1880109,62.8065395 C93.1880109,64.2361594 92.029075,65.3950954 90.599455,65.3950954 L9.67302452,65.3950954 C8.2434046,65.3950954 7.08446866,64.2361594 7.08446866,62.8065395 L7.08446866,61.1716621 C7.08446866,59.7420422 8.2434046,58.5831063 9.67302452,58.5831063 L90.599455,58.5831063 Z M50.1362398,20.9809264 C69.0594244,20.9809264 84.5169159,35.8193221 85.5080841,54.4954831 L14.7643954,54.4954831 C15.7555636,35.8193221 31.2130552,20.9809264 50.1362398,20.9809264 Z M36.9047201,29.7586758 C30.4170344,33.2181148 27.7371873,36.3127278 25.6604491,39.2953272 L25.3742634,39.7108023 L25.3742634,39.7108023 L25.0939713,40.1249762 C24.9549761,40.3317632 24.8174656,40.5381194 24.6803512,40.7441308 C22.037016,44.7156862 22.816039,46.5606565 23.3206435,47.1647341 C23.8252479,47.7688116 25.2143018,48.3150351 26.2012076,47.7688116 C28.0112515,46.7670054 28.4999495,42.6264253 31.8874661,39.5281612 C36.1410843,35.63775 37.9096696,34.8506503 41.0807472,33.2177643 C42.5932522,32.4389287 42.4237001,29.6452535 41.3358933,28.9655306 C40.2480864,28.2858078 38.8160335,28.7395031 36.9047201,29.7586758 Z M50.1362398,10.9944648 C54.1263622,10.9944648 56.506786,13.2391574 57.2775111,17.7285426 C54.9818962,17.4522878 52.6014725,17.3141604 50.1362398,17.3141604 C47.3623726,17.3141604 45.6748316,17.4561498 44.6890232,17.5738971 L44.4569679,17.6027326 C43.9122655,17.673078 43.6291581,17.7285426 43.5137507,17.7285426 C43.1941242,17.7285426 44.1510562,10.9944648 50.1362398,10.9944648 Z M19.7731084,88.5558583 L19.7731084,77.7206037 L23.8299099,88.5558583 L27.3731923,88.5558583 L31.4043178,77.7462796 L31.4043178,88.5558583 L35.7949068,88.5558583 L35.7949068,70.5313352 L30.634039,70.5313352 L25.6272271,83.0098512 L20.5690632,70.5313352 L15.3825195,70.5313352 L15.3825195,88.5558583 L19.7731084,88.5558583 Z M49.993712,88.5558583 L49.993712,85.0382519 L43.3436387,85.0382519 L43.3436387,81.0841543 L49.2234332,81.0841543 L49.2234332,77.6949277 L43.3436387,77.6949277 L43.3436387,74.0489416 L49.993712,74.0489416 L49.993712,70.5313352 L38.9530497,70.5313352 L38.9530497,88.5558583 L49.993712,88.5558583 Z M57.2343324,88.5558583 L57.2343324,77.4381681 L64.5776566,88.5558583 L68.9682456,88.5558583 L68.9682456,70.5313352 L64.5776566,70.5313352 L64.5776566,81.7003773 L57.2343324,70.5313352 L52.8437434,70.5313352 L52.8437434,88.5558583 L57.2343324,88.5558583 Z M76.4142737,69.5042968 L82.6021798,66.911025 L82.6021798,65.553371 L79.0232519,65.21876 L76.4142737,66.4745337 L76.4142737,69.5042968 Z M79.5210647,88.73559 C80.9418011,88.73559 82.2298784,88.4531545 83.3852965,87.8882834 C84.5407147,87.3234123 85.4607698,86.4846643 86.1454621,85.3720394 C86.8301543,84.2594145 87.1725004,82.8985887 87.1725004,81.289562 L87.1725004,81.289562 L87.1725004,70.5313352 L82.7819115,70.5313352 L82.7819115,81.3152379 C82.7819115,82.3936282 82.5080346,83.2238175 81.9602808,83.8058059 C81.412527,84.3877943 80.6251309,84.6787885 79.5980926,84.6787885 C78.5710542,84.6787885 77.7922168,84.3877943 77.2615803,83.8058059 C76.7309438,83.2238175 76.4656256,82.3936282 76.4656256,81.3152379 L76.4656256,81.3152379 L76.4656256,70.5313352 L72.0750366,70.5313352 L72.0750366,81.289562 C72.0750366,82.8985887 72.4002654,84.2636939 73.0507231,85.3848774 C73.7011807,86.5060609 74.5870013,87.3448089 75.7081848,87.9011214 C76.8293683,88.4574338 78.1003283,88.73559 79.5210647,88.73559 Z" id="Combined-Shape" fill="#FFFFFF"></path>
        </g>
    </g>
</svg>