<?xml version="1.0" encoding="UTF-8"?>
<svg width="398px" height="107px" viewBox="0 0 398 107" version="1.1" xmlns="http://www.w3.org/2000/svg" xmlns:xlink="http://www.w3.org/1999/xlink">
    <title>ubox-light</title>
    <g id="Page-1" stroke="none" stroke-width="1" fill="none" fill-rule="evenodd">
        <g id="ubox-light" fill="#000000" fill-rule="nonzero">
            <path d="M245.938128,101.623902 C249.193752,101.623902 252.380107,100.945366 255.497194,99.588293 C258.61428,98.23122 261.367707,96.3 263.757473,93.794634 C266.147239,91.289268 268.069443,88.227154 269.524083,84.608293 C270.978723,80.989431 271.706044,76.883415 271.706044,72.290244 C271.706044,67.766667 270.978723,63.695447 269.524083,60.076585 C268.069443,56.457724 266.147239,53.378211 263.757473,50.838049 C261.367707,48.297886 258.61428,46.349268 255.497194,44.992195 C252.380107,43.635122 249.124483,42.956585 245.730322,42.956585 C241.989819,42.956585 238.803463,43.687317 236.171257,45.14878 C233.539051,46.610244 231.426359,48.593659 229.833181,51.099024 L229.833181,51.099024 L229.833181,18.216098 L212.585302,18.216098 L212.585302,100.47561 L229.729278,100.47561 L229.729278,93.168293 C231.391724,95.812846 233.591002,97.883252 236.327111,99.379512 C239.063221,100.875772 242.266893,101.623902 245.938128,101.623902 Z M241.67811,84.921463 C239.946395,84.921463 238.301266,84.590894 236.742723,83.929756 C235.18418,83.268618 233.833442,82.363902 232.69051,81.21561 C231.547579,80.067317 230.647087,78.727642 229.989035,77.196585 C229.330984,75.665528 229.001958,73.995285 229.001958,72.185854 C229.001958,70.446016 229.330984,68.793171 229.989035,67.227317 C230.647087,65.661463 231.547579,64.30439 232.69051,63.156098 C233.833442,62.007805 235.18418,61.103089 236.742723,60.441951 C238.301266,59.780813 239.946395,59.450244 241.67811,59.450244 C243.409825,59.450244 245.054954,59.780813 246.613497,60.441951 C248.17204,61.103089 249.522778,62.007805 250.665709,63.156098 C251.808641,64.30439 252.709133,65.661463 253.367184,67.227317 C254.025236,68.793171 254.354262,70.446016 254.354262,72.185854 C254.354262,73.995285 254.025236,75.665528 253.367184,77.196585 C252.709133,78.727642 251.808641,80.067317 250.665709,81.21561 C249.522778,82.363902 248.17204,83.268618 246.613497,83.929756 C245.054954,84.590894 243.409825,84.921463 241.67811,84.921463 Z M307.474612,101.519512 C311.907801,101.519512 315.960014,100.753984 319.631249,99.222927 C323.302484,97.69187 326.471522,95.604065 329.138363,92.959512 C331.805204,90.314959 333.883262,87.218049 335.372536,83.66878 C336.861811,80.119512 337.606448,76.326667 337.606448,72.290244 C337.606448,68.253821 336.844494,64.460976 335.320585,60.911707 C333.796676,57.362439 331.683984,54.24813 328.982509,51.56878 C326.281034,48.889431 323.094679,46.784228 319.423443,45.253171 C315.752208,43.722114 311.769264,42.956585 307.474612,42.956585 C303.110691,42.956585 299.075795,43.722114 295.369926,45.253171 C291.664056,46.784228 288.495018,48.889431 285.862812,51.56878 C283.230605,54.24813 281.169865,57.362439 279.68059,60.911707 C278.191315,64.460976 277.446678,68.253821 277.446678,72.290244 C277.446678,76.326667 278.191315,80.119512 279.68059,83.66878 C281.169865,87.218049 283.230605,90.314959 285.862812,92.959512 C288.495018,95.604065 291.664056,97.69187 295.369926,99.222927 C299.075795,100.753984 303.110691,101.519512 307.474612,101.519512 Z M307.578515,84.921463 C305.8468,84.921463 304.201671,84.590894 302.643128,83.929756 C301.084584,83.268618 299.733847,82.363902 298.590915,81.21561 C297.447983,80.067317 296.547492,78.727642 295.88944,77.196585 C295.231388,75.665528 294.902363,73.995285 294.902363,72.185854 C294.902363,70.446016 295.231388,68.793171 295.88944,67.227317 C296.547492,65.661463 297.447983,64.30439 298.590915,63.156098 C299.733847,62.007805 301.084584,61.103089 302.643128,60.441951 C304.201671,59.780813 305.8468,59.450244 307.578515,59.450244 C309.310229,59.450244 310.955358,59.780813 312.513902,60.441951 C314.072445,61.103089 315.423182,62.007805 316.566114,63.156098 C317.709046,64.30439 318.609537,65.661463 319.267589,67.227317 C319.925641,68.793171 320.254666,70.446016 320.254666,72.185854 C320.254666,73.995285 319.925641,75.665528 319.267589,77.196585 C318.609537,78.727642 317.709046,80.067317 316.566114,81.21561 C315.423182,82.363902 314.072445,83.268618 312.513902,83.929756 C310.955358,84.590894 309.310229,84.921463 307.578515,84.921463 Z M356.023235,100.47561 L366.413523,85.443415 L377.219423,100.47561 L398,100.47561 L377.219423,71.559512 L396.337554,44.104878 L375.972588,44.104878 L366.621329,58.301951 L357.166166,44.104878 L336.697298,44.104878 L355.815429,71.350732 L335.346561,100.47561 L356.023235,100.47561 Z M115.591959,41.756098 L115.591959,85.099949 L77.512827,107 L38.963582,85.099949 L38.963582,41.756098 L76.572601,63.199898 L115.591959,41.756098 Z M158.867511,25.57561 L158.867511,71.820488 L158.871402,72.256171 C158.944048,76.290111 160.033731,79.415778 162.140452,81.633171 C164.322412,83.929756 167.283644,85.078049 171.024148,85.078049 C174.695384,85.078049 177.673933,83.929756 179.959796,81.633171 C182.24566,79.336585 183.388592,76.065691 183.388592,71.820488 L183.388592,71.820488 L183.388592,25.57561 L201.779402,25.57561 L201.779402,71.820488 L201.774454,72.522577 C201.708484,77.177925 200.982813,81.328285 199.597442,84.973659 C198.142801,88.801301 196.099378,92.037398 193.467171,94.681951 C190.834965,97.326504 187.613976,99.344715 183.804203,100.736585 C179.994431,102.128455 175.769047,102.82439 171.128051,102.82439 C166.417787,102.82439 162.175086,102.128455 158.399948,100.736585 C154.62481,99.344715 151.421137,97.326504 148.788931,94.681951 C146.156725,92.037398 144.113301,88.801301 142.658661,84.973659 C141.20402,81.146016 140.4767,76.761626 140.4767,71.820488 L140.4767,71.820488 L140.4767,25.57561 L158.867511,25.57561 Z M38.135606,0 L75.329591,19.970308 L38.135606,41.756098 L0,19.970308 L38.135606,0 Z" id="Combined-Shape"></path>
        </g>
    </g>
</svg>