<?xml version="1.0" encoding="UTF-8"?>
<svg width="398px" height="107px" viewBox="0 0 398 107" version="1.1" xmlns="http://www.w3.org/2000/svg" xmlns:xlink="http://www.w3.org/1999/xlink">
    <title>Combined Shape</title>
    <g id="Page-1" stroke="none" stroke-width="1" fill="none" fill-rule="evenodd">
        <g id="Desktop" transform="translate(-270.000000, -424.000000)" fill="#FFFFFF">
            <path d="M515.938128,525.623902 C519.193752,525.623902 522.380107,524.945366 525.497194,523.588293 C528.61428,522.23122 531.367707,520.3 533.757473,517.794634 C536.147239,515.289268 538.069443,512.227154 539.524083,508.608293 C540.978723,504.989431 541.706044,500.883415 541.706044,496.290244 C541.706044,491.766667 540.978723,487.695447 539.524083,484.076585 C538.069443,480.457724 536.147239,477.378211 533.757473,474.838049 C531.367707,472.297886 528.61428,470.349268 525.497194,468.992195 C522.380107,467.635122 519.124483,466.956585 515.730322,466.956585 C511.989819,466.956585 508.803463,467.687317 506.171257,469.14878 C503.539051,470.610244 501.426359,472.593659 499.833181,475.099024 L499.833181,475.099024 L499.833181,442.216098 L482.585302,442.216098 L482.585302,524.47561 L499.729278,524.47561 L499.729278,517.168293 C501.391724,519.812846 503.591002,521.883252 506.327111,523.379512 C509.063221,524.875772 512.266893,525.623902 515.938128,525.623902 Z M511.67811,508.921463 C509.946395,508.921463 508.301266,508.590894 506.742723,507.929756 C505.18418,507.268618 503.833442,506.363902 502.69051,505.21561 C501.547579,504.067317 500.647087,502.727642 499.989035,501.196585 C499.330984,499.665528 499.001958,497.995285 499.001958,496.185854 C499.001958,494.446016 499.330984,492.793171 499.989035,491.227317 C500.647087,489.661463 501.547579,488.30439 502.69051,487.156098 C503.833442,486.007805 505.18418,485.103089 506.742723,484.441951 C508.301266,483.780813 509.946395,483.450244 511.67811,483.450244 C513.409825,483.450244 515.054954,483.780813 516.613497,484.441951 C518.17204,485.103089 519.522778,486.007805 520.665709,487.156098 C521.808641,488.30439 522.709133,489.661463 523.367184,491.227317 C524.025236,492.793171 524.354262,494.446016 524.354262,496.185854 C524.354262,497.995285 524.025236,499.665528 523.367184,501.196585 C522.709133,502.727642 521.808641,504.067317 520.665709,505.21561 C519.522778,506.363902 518.17204,507.268618 516.613497,507.929756 C515.054954,508.590894 513.409825,508.921463 511.67811,508.921463 Z M577.474612,525.519512 C581.907801,525.519512 585.960014,524.753984 589.631249,523.222927 C593.302484,521.69187 596.471522,519.604065 599.138363,516.959512 C601.805204,514.314959 603.883262,511.218049 605.372536,507.66878 C606.861811,504.119512 607.606448,500.326667 607.606448,496.290244 C607.606448,492.253821 606.844494,488.460976 605.320585,484.911707 C603.796676,481.362439 601.683984,478.24813 598.982509,475.56878 C596.281034,472.889431 593.094679,470.784228 589.423443,469.253171 C585.752208,467.722114 581.769264,466.956585 577.474612,466.956585 C573.110691,466.956585 569.075795,467.722114 565.369926,469.253171 C561.664056,470.784228 558.495018,472.889431 555.862812,475.56878 C553.230605,478.24813 551.169865,481.362439 549.68059,484.911707 C548.191315,488.460976 547.446678,492.253821 547.446678,496.290244 C547.446678,500.326667 548.191315,504.119512 549.68059,507.66878 C551.169865,511.218049 553.230605,514.314959 555.862812,516.959512 C558.495018,519.604065 561.664056,521.69187 565.369926,523.222927 C569.075795,524.753984 573.110691,525.519512 577.474612,525.519512 Z M577.578515,508.921463 C575.8468,508.921463 574.201671,508.590894 572.643128,507.929756 C571.084584,507.268618 569.733847,506.363902 568.590915,505.21561 C567.447983,504.067317 566.547492,502.727642 565.88944,501.196585 C565.231388,499.665528 564.902363,497.995285 564.902363,496.185854 C564.902363,494.446016 565.231388,492.793171 565.88944,491.227317 C566.547492,489.661463 567.447983,488.30439 568.590915,487.156098 C569.733847,486.007805 571.084584,485.103089 572.643128,484.441951 C574.201671,483.780813 575.8468,483.450244 577.578515,483.450244 C579.310229,483.450244 580.955358,483.780813 582.513902,484.441951 C584.072445,485.103089 585.423182,486.007805 586.566114,487.156098 C587.709046,488.30439 588.609537,489.661463 589.267589,491.227317 C589.925641,492.793171 590.254666,494.446016 590.254666,496.185854 C590.254666,497.995285 589.925641,499.665528 589.267589,501.196585 C588.609537,502.727642 587.709046,504.067317 586.566114,505.21561 C585.423182,506.363902 584.072445,507.268618 582.513902,507.929756 C580.955358,508.590894 579.310229,508.921463 577.578515,508.921463 Z M626.023235,524.47561 L636.413523,509.443415 L647.219423,524.47561 L668,524.47561 L647.219423,495.559512 L666.337554,468.104878 L645.972588,468.104878 L636.621329,482.301951 L627.166166,468.104878 L606.697298,468.104878 L625.815429,495.350732 L605.346561,524.47561 L626.023235,524.47561 Z M385.591959,465.756098 L385.591959,509.099949 L347.512827,531 L308.963582,509.099949 L308.963582,465.756098 L346.572601,487.199898 L385.591959,465.756098 Z M428.867511,449.57561 L428.867511,495.820488 L428.871402,496.256171 C428.944048,500.290111 430.033731,503.415778 432.140452,505.633171 C434.322412,507.929756 437.283644,509.078049 441.024148,509.078049 C444.695384,509.078049 447.673933,507.929756 449.959796,505.633171 C452.24566,503.336585 453.388592,500.065691 453.388592,495.820488 L453.388592,495.820488 L453.388592,449.57561 L471.779402,449.57561 L471.779402,495.820488 L471.774454,496.522577 C471.708484,501.177925 470.982813,505.328285 469.597442,508.973659 C468.142801,512.801301 466.099378,516.037398 463.467171,518.681951 C460.834965,521.326504 457.613976,523.344715 453.804203,524.736585 C449.994431,526.128455 445.769047,526.82439 441.128051,526.82439 C436.417787,526.82439 432.175086,526.128455 428.399948,524.736585 C424.62481,523.344715 421.421137,521.326504 418.788931,518.681951 C416.156725,516.037398 414.113301,512.801301 412.658661,508.973659 C411.20402,505.146016 410.4767,500.761626 410.4767,495.820488 L410.4767,495.820488 L410.4767,449.57561 L428.867511,449.57561 Z M308.135606,424 L345.329591,443.970308 L308.135606,465.756098 L270,443.970308 L308.135606,424 Z" id="Combined-Shape"></path>
        </g>
    </g>
</svg>